<svg opacity="0.3" id="Layer_3" data-name="Layer 3" xmlns="http://www.w3.org/2000/svg" xmlns:xlink="http://www.w3.org/1999/xlink" viewBox="0 0 2000 2000"><defs><clipPath id="clip-path"><rect width="2000" height="2000" style="fill:none"/></clipPath></defs><title>vecteezy_baby-seamless-pattern_12473291 [Converted]</title><g style="clip-path:url(#clip-path)"><rect x="-120.41" y="-142.51" width="2240.82" height="2285.02" style="fill:#f2f1f1"/><path d="M479.68,427.73V367.36c-41.66,0-75.42,25.39-75.42,56.71s33.76,56.7,75.42,56.7c40,0,72.74-23.43,75.25-53Z" style="fill:#fff"/><path d="M479.68,485.72c-44.32,0-80.37-27.66-80.37-61.65s36.05-61.66,80.37-61.66a5,5,0,0,1,4.95,4.95v55.42h70.3a5,5,0,0,1,4.93,5.37C557.12,460.43,521.9,485.72,479.68,485.72Zm-4.95-113.29c-36.56,1.88-65.52,24.32-65.52,51.64,0,28.53,31.61,51.75,70.47,51.75,34.64,0,63.86-18.56,69.48-43.14H479.68a5,5,0,0,1-4.95-4.95Z" style="fill:#6f60aa"/><path d="M554.93,432.63a5,5,0,0,1-4.95-4.95A32.71,32.71,0,0,1,582.65,395a5,5,0,1,1,0,9.9,22.8,22.8,0,0,0-22.77,22.77A5,5,0,0,1,554.93,432.63Z" style="fill:#6f60aa"/><path d="M438.15,494.27a13.5,13.5,0,1,0-13.5,13.49A13.5,13.5,0,0,0,438.15,494.27Z" style="fill:#f3d85f"/><path d="M424.65,512.71a18.45,18.45,0,1,1,18.44-18.44A18.47,18.47,0,0,1,424.65,512.71Zm0-27a8.55,8.55,0,1,0,8.55,8.55A8.56,8.56,0,0,0,424.65,485.72Z" style="fill:#6f60aa"/><path d="M548,494.27a13.5,13.5,0,1,0-13.49,13.49A13.49,13.49,0,0,0,548,494.27Z" style="fill:#f3d85f"/><path d="M534.54,512.71A18.45,18.45,0,1,1,553,494.27,18.46,18.46,0,0,1,534.54,512.71Zm0-27a8.55,8.55,0,1,0,8.54,8.55A8.55,8.55,0,0,0,534.54,485.72Z" style="fill:#6f60aa"/><path d="M473-34.09A34.25,34.25,0,0,1,507.26.16a34.25,34.25,0,1,1-68.5,0A34.25,34.25,0,0,1,473-34.09a57.25,57.25,0,0,0-57.25,57.25V50a57.25,57.25,0,1,0,114.5,0V23.16A57.25,57.25,0,0,0,473-34.09Z" style="fill:#75bedc"/><path d="M473,112.23A62.28,62.28,0,0,1,410.81,50V23.16a62.2,62.2,0,0,1,124.4,0V50A62.28,62.28,0,0,1,473,112.23ZM436.6-14.35a52.14,52.14,0,0,0-15.89,37.51V50a52.31,52.31,0,1,0,104.61,0V23.16a52.18,52.18,0,0,0-15.89-37.51A39.11,39.11,0,0,1,512.21.16,39.24,39.24,0,0,1,473,39.36,39.24,39.24,0,0,1,433.81.16,38.92,38.92,0,0,1,436.6-14.35ZM473-29.14A29.33,29.33,0,0,0,443.71.16,29.34,29.34,0,0,0,473,29.47,29.35,29.35,0,0,0,502.32.16,29.34,29.34,0,0,0,473-29.14Z" style="fill:#6f60aa"/><path d="M913,33.6H895.59a37,37,0,1,1-74,0H804.17v0l0,0L751.34,66,777,105.43l27.16-15.7v95.52s19.36-3.65,29.63,5.68c9,8.19,7.83,31.1,7.83,31.1h33.93s-2.59-22.91,7.83-31.1c10.22-8,29.63-5.68,29.63-5.68V89.75l27.14,15.68L965.82,66Z" style="fill:#e982ac"/><path d="M875.59,227h-34a4.94,4.94,0,0,1-4.94-5.2c.4-8-.94-22.39-6.21-27.19-4.64-4.21-12.09-5.09-17.51-5.09a48,48,0,0,0-7.89.62,5,5,0,0,1-5.86-4.87V98.31l-19.73,11.41a5,5,0,0,1-6.63-1.59L747.2,68.69a4.88,4.88,0,0,1-.68-3.79,5,5,0,0,1,2.23-3.13l52.8-32.38a4.84,4.84,0,0,1,2.66-.73h17.37a4.94,4.94,0,0,1,4.94,4.94,32.06,32.06,0,1,0,64.12,0,5,5,0,0,1,5-4.94H913a4.92,4.92,0,0,1,2.59.73l52.8,32.38A5,5,0,0,1,970,68.69L944.3,108.13a5,5,0,0,1-6.62,1.59L918,98.33v86.92a4.94,4.94,0,0,1-5.54,4.91,57.78,57.78,0,0,0-5.9-.28c-8.9,0-16,1.76-20.08,4.94-6.54,5.14-6.57,20.48-6,26.16a5.19,5.19,0,0,1,.11,1.05A5,5,0,0,1,875.59,227Zm-29-9.9h23.68c-.17-8.15.92-22.89,10-30,7.42-5.83,18.34-7,26.19-7h1.55V89.75a4.95,4.95,0,0,1,7.42-4.28L938.57,98.8,958.9,67.55l-47.27-29H900.25a42,42,0,0,1-83.33,0H805.54l-47.28,29L778.6,98.8l23.09-13.35a5,5,0,0,1,7.43,4.28v90c1.17-.07,2.46-.12,3.85-.12,7.17,0,17.18,1.33,24.16,7.67C845,194.39,846.44,209.1,846.63,217.08Z" style="fill:#6f60aa"/><path d="M20.35,9.82V52.34L-.17,58c-.56.16-1.11.36-1.65.55A38.07,38.07,0,0,1,20.35,93.11a38,38,0,0,1-3,14.77L55.61,97.39c14-3.86,18.46-17.27,18.46-32.43V9.82Z" style="fill:#fff"/><path d="M17.38,112.83A4.94,4.94,0,0,1,12.82,106,33,33,0,0,0,15.4,93.11,33.24,33.24,0,0,0-3.89,63a4.94,4.94,0,0,1-2.88-4.74,5,5,0,0,1,3.33-4.43l.3-.1c.55-.2,1.1-.38,1.66-.54L15.4,48.57V9.82a5,5,0,0,1,5-4.94H74.07a5,5,0,0,1,5,4.94V65c0,25.73-12,34.43-22.1,37.2L18.69,112.65A4.92,4.92,0,0,1,17.38,112.83ZM10.07,60.29A43.19,43.19,0,0,1,25.3,93.11a43.18,43.18,0,0,1-.68,7.65L54.3,92.62c10-2.74,14.82-11.79,14.82-27.66V14.77H25.3V52.34a5,5,0,0,1-3.64,4.77Z" style="fill:#6f60aa"/><path d="M74.07,36H20.35a4.95,4.95,0,0,1,0-9.9H74.07a4.95,4.95,0,1,1,0,9.9Z" style="fill:#6f60aa"/><path d="M-1.82,58.52A26.37,26.37,0,0,0,13.8,108.87l3.58-1a38,38,0,0,0,3-14.77A38.07,38.07,0,0,0-1.82,58.52Z" style="fill:#75bedc"/><path d="M6.8,114.76h0A31.32,31.32,0,0,1-3.44,53.84,5,5,0,0,1,.25,54,43.18,43.18,0,0,1,25.3,93.11a42.71,42.71,0,0,1-3.36,16.69,5,5,0,0,1-3.25,2.85l-3.58,1A31.64,31.64,0,0,1,6.8,114.76ZM-2,63.93A21.42,21.42,0,0,0,6.8,104.86a21.15,21.15,0,0,0,5.69-.77l1.16-.31A32.83,32.83,0,0,0,15.4,93.11,33.23,33.23,0,0,0-2,63.93Z" style="fill:#6f60aa"/><path d="M1141.83,319.72a30.15,30.15,0,0,1-30.15,30.16h-36a30.16,30.16,0,0,1-30.16-30.16h0a30.16,30.16,0,0,1,30.16-30.16h36a30.15,30.15,0,0,1,30.15,30.16Z" style="fill:#f3d85f"/><path d="M1111.68,354.83h-36a35.11,35.11,0,0,1,0-70.22h36a35.11,35.11,0,0,1,0,70.22Zm-36-60.32a25.21,25.21,0,0,0,0,50.42h36a25.21,25.21,0,1,0,0-50.42Z" style="fill:#6f60aa"/><path d="M1093.66,389.87A27.72,27.72,0,0,1,1066,362.18v-24.6a27.69,27.69,0,1,1,55.38,0v24.6A27.72,27.72,0,0,1,1093.66,389.87Zm0-70.09a17.83,17.83,0,0,0-17.8,17.8v24.6a17.8,17.8,0,0,0,35.59,0v-24.6A17.82,17.82,0,0,0,1093.66,319.78Z" style="fill:#6f60aa"/><path d="M1108.63,319.72a15,15,0,1,0-15,15A15,15,0,0,0,1108.63,319.72Z" style="fill:#fff"/><path d="M1093.66,339.64a19.92,19.92,0,1,1,19.91-19.92A19.95,19.95,0,0,1,1093.66,339.64Zm0-29.94a10,10,0,1,0,10,10A10,10,0,0,0,1093.66,309.7Z" style="fill:#6f60aa"/><path d="M775.57,417v43.66s16.77,2.76,20.69,6.67c10.11,10.11,23.34,36.55,23.34,36.55h39.87s12.33-25.54,23.34-36.55c5.45-5.45,20.69-6.67,20.69-6.67V417Z" style="fill:#75bedc"/><path d="M859.47,508.79H819.6a5,5,0,0,1-4.43-2.74c-.13-.25-13-25.83-22.41-35.26-1.56-1.5-10-4-18-5.29a5,5,0,0,1-4.14-4.88V417a5,5,0,0,1,5-4.95H903.5a5,5,0,0,1,5,4.95v43.66a5,5,0,0,1-4.55,4.93c-5.58.45-14.73,2.38-17.59,5.24-10.3,10.3-22.26,34.95-22.38,35.2A5,5,0,0,1,859.47,508.79Zm-36.85-9.9h33.79c3.6-7.09,13.53-25.73,22.91-35.1,4.66-4.66,13.6-6.71,19.23-7.57V421.91h-118V456.5c6.08,1.23,15.61,3.65,19.24,7.29C808.44,472.48,818.88,491.72,822.62,498.89Z" style="fill:#6f60aa"/><rect x="775.57" y="430.4" width="28.08" height="16.26" style="fill:#fff"/><path d="M803.65,451.6H775.57a4.94,4.94,0,0,1-5-4.94V430.4a5,5,0,0,1,5-4.95h28.08a5,5,0,0,1,5,4.95v16.26A5,5,0,0,1,803.65,451.6Zm-23.14-9.89H798.7v-6.36H780.51Z" style="fill:#6f60aa"/><rect x="875.42" y="430.4" width="28.08" height="16.26" style="fill:#fff"/><path d="M903.5,451.6H875.42a5,5,0,0,1-4.95-4.94V430.4a5,5,0,0,1,4.95-4.95H903.5a5,5,0,0,1,5,4.95v16.26A4.94,4.94,0,0,1,903.5,451.6Zm-23.13-9.89h18.18v-6.36H880.37Z" style="fill:#6f60aa"/><polygon points="32.79 395.05 2.52 394.94 2.52 394.94 22.55 371.73 32.79 395.05" style="fill:#e982ac"/><path d="M32.82,400h0L2.5,399.89a5,5,0,0,1-3.73-8.18l20-23.21a5,5,0,0,1,8.28,1.24l10,22.86a4.95,4.95,0,0,1-4.3,7.4ZM13.29,390l11.91,0-4-9.17Z" style="fill:#6f60aa"/><path d="M70,385.86a24.51,24.51,0,1,0-30.14,11.51,34.39,34.39,0,0,0,25.67,57.29h55.61a34.4,34.4,0,0,0,34.39-34.4v-34.4Z" style="fill:#f3d85f"/><path d="M121.12,459.61H65.51a39.35,39.35,0,0,1-33.17-60.5,29.44,29.44,0,1,1,44.71-18.2h78.46a5,5,0,0,1,5,4.95v34.4A39.39,39.39,0,0,1,121.12,459.61ZM48.33,354.85a19.54,19.54,0,0,0-6.77,37.88,5,5,0,0,1,2,7.94,29.43,29.43,0,0,0,22,49h55.61a29.48,29.48,0,0,0,29.45-29.45V390.81H70a4.95,4.95,0,0,1-4.37-7.26,19.31,19.31,0,0,0,2.27-9.14A19.57,19.57,0,0,0,48.33,354.85Z" style="fill:#6f60aa"/><path d="M122.64,420.26a14.28,14.28,0,0,1-14.29,14.28H71A14.28,14.28,0,0,1,56.7,420.26h0A14.28,14.28,0,0,1,71,406h51.65v14.28Z" style="fill:#f3d85f"/><path d="M108.35,439.49H71A19.23,19.23,0,1,1,71,401h51.65a5,5,0,0,1,4.94,5v14.28A19.24,19.24,0,0,1,108.35,439.49ZM71,410.93a9.34,9.34,0,1,0,0,18.67h37.36a9.35,9.35,0,0,0,9.34-9.34v-9.33Z" style="fill:#6f60aa"/><path d="M49.93,371.73A5.29,5.29,0,1,0,44.64,377,5.29,5.29,0,0,0,49.93,371.73Z" style="fill:#6f60aa"/><path d="M281.18,222.33a17.9,17.9,0,0,0-25.33,0l-4.27,4.27-4.28-4.27A17.91,17.91,0,1,0,222,247.65l5.27,5.26,19.42,19.43a17.72,17.72,0,0,0,4.92,3.46,17.82,17.82,0,0,0,4.91-3.46l19.42-19.43,5.27-5.26A17.91,17.91,0,0,0,281.18,222.33Z" style="fill:#e982ac"/><path d="M251.58,280.75a4.9,4.9,0,0,1-2.15-.49,22.8,22.8,0,0,1-6.26-4.42l-24.69-24.69a22.85,22.85,0,1,1,32.32-32.32l.78.78.78-.78a22.85,22.85,0,0,1,32.32,32.32L260,275.84a23,23,0,0,1-6.27,4.42A4.89,4.89,0,0,1,251.58,280.75ZM234.64,222a13,13,0,0,0-9.17,22.12l24.69,24.69a12.84,12.84,0,0,0,1.42,1.22,13.71,13.71,0,0,0,1.41-1.22l24.69-24.69a13,13,0,0,0-18.33-18.33l-4.28,4.28a4.94,4.94,0,0,1-7,0l-4.28-4.28A12.9,12.9,0,0,0,234.64,222Z" style="fill:#6f60aa"/><polygon points="649.78 215.87 659.72 236 681.93 239.22 665.85 254.89 669.65 277.02 649.78 266.57 629.91 277.02 633.71 254.89 617.63 239.22 639.85 236 649.78 215.87" style="fill:#f3d85f"/><path d="M669.65,282a4.91,4.91,0,0,1-2.3-.56l-17.57-9.24-17.57,9.24a4.94,4.94,0,0,1-7.17-5.22l3.35-19.56-14.21-13.85a5,5,0,0,1,2.74-8.44l19.64-2.86,8.78-17.79a5,5,0,0,1,8.88,0L663,231.47l19.64,2.86a5,5,0,0,1,2.74,8.44l-14.21,13.85,3.36,19.56a4.94,4.94,0,0,1-4.88,5.78Zm-19.87-20.34a4.92,4.92,0,0,1,2.3.57l11,5.78L661,255.73a4.92,4.92,0,0,1,1.42-4.38l8.89-8.67L659,240.89a4.92,4.92,0,0,1-3.72-2.7l-5.5-11.14-5.5,11.14a4.92,4.92,0,0,1-3.72,2.7l-12.29,1.79,8.89,8.67a4.92,4.92,0,0,1,1.42,4.38L636.48,268l11-5.78A4.92,4.92,0,0,1,649.78,261.62Z" style="fill:#6f60aa"/><path d="M1421.57,284.2V223.83c-41.66,0-75.42,25.39-75.42,56.71s33.76,56.7,75.42,56.7c40,0,72.73-23.43,75.25-53Z" style="fill:#fff"/><path d="M1421.57,342.19c-44.32,0-80.37-27.66-80.37-61.65s36-61.65,80.37-61.66a5,5,0,0,1,3.5,1.46,4.91,4.91,0,0,1,1.45,3.49v55.42h70.3a5,5,0,0,1,4.93,5.37C1499,316.9,1463.79,342.19,1421.57,342.19Zm-5-113.28c-36.56,1.87-65.52,24.31-65.52,51.63,0,28.54,31.61,51.75,70.47,51.75,34.64,0,63.86-18.55,69.48-43.14h-69.48a5,5,0,0,1-5-4.95Z" style="fill:#6f60aa"/><path d="M1496.82,289.11a5,5,0,0,1-5-4.95,32.71,32.71,0,0,1,32.67-32.67,4.95,4.95,0,1,1,0,9.89,22.8,22.8,0,0,0-22.77,22.78A5,5,0,0,1,1496.82,289.11Z" style="fill:#6f60aa"/><path d="M1380,350.74a13.5,13.5,0,1,0-13.5,13.5A13.5,13.5,0,0,0,1380,350.74Z" style="fill:#f3d85f"/><path d="M1366.54,369.18A18.45,18.45,0,1,1,1385,350.74,18.47,18.47,0,0,1,1366.54,369.18Zm0-27a8.55,8.55,0,1,0,8.55,8.55A8.56,8.56,0,0,0,1366.54,342.19Z" style="fill:#6f60aa"/><path d="M1489.92,350.74a13.5,13.5,0,1,0-13.49,13.5A13.49,13.49,0,0,0,1489.92,350.74Z" style="fill:#f3d85f"/><path d="M1476.43,369.18a18.45,18.45,0,1,1,18.44-18.44A18.46,18.46,0,0,1,1476.43,369.18Zm0-27a8.55,8.55,0,1,0,8.54,8.55A8.55,8.55,0,0,0,1476.43,342.19Z" style="fill:#6f60aa"/><path d="M1190.82,555.5a34.26,34.26,0,1,1-34.25,34.26,34.25,34.25,0,0,1,34.25-34.26,57.26,57.26,0,0,0-57.25,57.26v26.86a57.26,57.26,0,0,0,114.51,0V612.76A57.26,57.26,0,0,0,1190.82,555.5Z" style="fill:#75bedc"/><path d="M1190.82,701.82a62.27,62.27,0,0,1-62.2-62.2V612.76a62.21,62.21,0,0,1,124.41,0v26.86A62.28,62.28,0,0,1,1190.82,701.82Zm-36.41-126.57a52.13,52.13,0,0,0-15.89,37.51v26.86a52.31,52.31,0,0,0,104.61,0V612.76a52.13,52.13,0,0,0-15.89-37.51,39.21,39.21,0,1,1-72.83,0Zm36.41-14.8a29.31,29.31,0,1,0,29.31,29.31A29.34,29.34,0,0,0,1190.82,560.45Z" style="fill:#6f60aa"/><path d="M1190.82,560.45a4.9,4.9,0,0,1-1.13-.13c-5.22-1.23-22.67-5.62-27.69-10.65a16.26,16.26,0,0,1,23-23c5,5,9.42,22.47,10.65,27.69a5,5,0,0,1-4.82,6.08Zm-17.32-28.63a6.36,6.36,0,0,0-4.5,10.86c1.48,1.47,7.87,3.84,14.88,5.88-2-7-4.41-13.4-5.88-14.88A6.34,6.34,0,0,0,1173.5,531.82Z" style="fill:#6f60aa"/><path d="M1190.82,560.45a4.94,4.94,0,0,1-4.81-6.08c1.22-5.22,5.62-22.67,10.64-27.69a16.26,16.26,0,0,1,23,23c-5,5-22.46,9.42-27.69,10.65A4.78,4.78,0,0,1,1190.82,560.45Zm17.33-28.63a6.32,6.32,0,0,0-4.5,1.86c-1.48,1.48-3.84,7.88-5.88,14.88,7-2,13.4-4.41,14.88-5.88a6.36,6.36,0,0,0-4.5-10.86Z" style="fill:#6f60aa"/><path d="M1149.53-59.65V-71a7.3,7.3,0,0,0-7.3-7.31,7.31,7.31,0,0,0-7.31,7.31v11.39a17,17,0,0,0-15.31,16.88v41a17,17,0,0,0,17,17h11.31a17,17,0,0,0,17-17v-41A17,17,0,0,0,1149.53-59.65Z" style="fill:#f3d85f"/><path d="M1147.88,20.14h-11.31a21.94,21.94,0,0,1-21.91-21.91v-41A21.81,21.81,0,0,1,1130-63.68V-71a12.27,12.27,0,0,1,12.26-12.26A12.27,12.27,0,0,1,1154.48-71v7.36a21.81,21.81,0,0,1,15.31,20.91v41A21.94,21.94,0,0,1,1147.88,20.14Zm-5.65-93.54a2.36,2.36,0,0,0-2.36,2.36v11.39a4.94,4.94,0,0,1-4.47,4.92,12,12,0,0,0-10.84,12v41a12,12,0,0,0,12,12h11.31a12,12,0,0,0,12-12v-41a12,12,0,0,0-10.85-12,4.94,4.94,0,0,1-4.47-4.92V-71A2.36,2.36,0,0,0,1142.23-73.4Z" style="fill:#6f60aa"/><rect x="1104.06" y="-17.71" width="76.33" height="144.99" rx="16.96" style="fill:#fff"/><path d="M1163.43,132.23H1121a21.94,21.94,0,0,1-21.91-21.91V-.74A21.93,21.93,0,0,1,1121-22.65h42.41A21.93,21.93,0,0,1,1185.34-.74V110.32A21.94,21.94,0,0,1,1163.43,132.23ZM1121-12.76a12,12,0,0,0-12,12V110.32a12,12,0,0,0,12,12h42.41a12,12,0,0,0,12-12V-.74a12,12,0,0,0-12-12Z" style="fill:#6f60aa"/><path d="M1180.39,20.14h-32.51a5,5,0,0,1,0-9.9h32.51a5,5,0,0,1,0,9.9Z" style="fill:#6f60aa"/><path d="M1180.39,39.69h-32.51a4.95,4.95,0,1,1,0-9.89h32.51a4.95,4.95,0,1,1,0,9.89Z" style="fill:#6f60aa"/><path d="M1180.39,59.25h-32.51a5,5,0,0,1,0-9.9h32.51a5,5,0,0,1,0,9.9Z" style="fill:#6f60aa"/><path d="M1180.39,78.8h-32.51a4.95,4.95,0,1,1,0-9.89h32.51a4.95,4.95,0,1,1,0,9.89Z" style="fill:#6f60aa"/><path d="M1180.39,98.36h-32.51a4.95,4.95,0,1,1,0-9.89h32.51a4.95,4.95,0,1,1,0,9.89Z" style="fill:#6f60aa"/><path d="M1799.27,418.5h-17.43a37,37,0,0,1-74,0h-17.4v0l0,0-52.8,32.38,25.66,39.45,27.17-15.71v95.53s19.36-3.66,29.63,5.67c9,8.19,7.83,31.1,7.83,31.1h33.93s-2.59-22.91,7.83-31.1c10.22-8,29.63-5.67,29.63-5.67V474.64l27.13,15.69,25.67-39.45Z" style="fill:#e982ac"/><path d="M1761.84,611.87h-34a4.94,4.94,0,0,1-4.94-5.2c.4-8-.94-22.39-6.22-27.18-4.64-4.22-12.08-5.1-17.51-5.1a47.83,47.83,0,0,0-7.88.62,5,5,0,0,1-5.86-4.86V483.2l-19.74,11.41a5,5,0,0,1-6.62-1.59l-25.67-39.44a5,5,0,0,1,1.56-6.92l52.8-32.38a4.93,4.93,0,0,1,2.66-.73h17.36a5,5,0,0,1,5,4.95,32.06,32.06,0,0,0,64.12,0,4.94,4.94,0,0,1,4.95-4.95h17.43a5,5,0,0,1,2.59.73l52.8,32.38a5,5,0,0,1,2.24,3.13,4.93,4.93,0,0,1-.69,3.79L1830.55,493a5,5,0,0,1-6.62,1.59l-19.71-11.39v86.93a5,5,0,0,1-5.54,4.91,55.81,55.81,0,0,0-5.9-.29c-8.9,0-16,1.76-20.08,4.94-6.54,5.14-6.57,20.49-6,26.17a4.42,4.42,0,0,1,.11,1A4.94,4.94,0,0,1,1761.84,611.87Zm-29-9.9h23.68c-.16-8.15.93-22.89,10-30,7.43-5.83,18.34-7,26.2-7h1.54V474.64a5,5,0,0,1,7.42-4.28l23.07,13.33,20.34-31.25-47.28-29h-11.38a42,42,0,0,1-83.33,0h-11.37l-47.28,29,20.33,31.25,23.1-13.35a5,5,0,0,1,7.43,4.28v90c1.16-.08,2.46-.13,3.84-.13,7.17,0,17.19,1.33,24.17,7.67C1731.21,579.28,1732.68,594,1732.87,602Z" style="fill:#6f60aa"/><path d="M2020.35,9.82V52.34L1999.83,58c-.56.16-1.11.36-1.65.55a38.1,38.1,0,0,1,19.2,49.36l38.23-10.49c14-3.86,18.46-17.27,18.46-32.43V9.82Z" style="fill:#fff"/><path d="M2017.38,112.83a4.94,4.94,0,0,1-4.56-6.87A33.17,33.17,0,0,0,1996.11,63a4.94,4.94,0,0,1,.45-9.17l.3-.1c.55-.2,1.1-.38,1.66-.54l16.88-4.63V9.82a5,5,0,0,1,4.95-4.94h53.72A5,5,0,0,1,2079,9.82V65c0,25.73-12,34.43-22.1,37.2l-38.23,10.49A4.92,4.92,0,0,1,2017.38,112.83Zm-7.31-52.54a43,43,0,0,1,14.55,40.47l29.68-8.14c10-2.74,14.82-11.79,14.82-27.66V14.77H2025.3V52.34a5,5,0,0,1-3.64,4.77Z" style="fill:#6f60aa"/><path d="M1998.18,58.52a26.37,26.37,0,0,0,15.62,50.35l3.58-1a38.1,38.1,0,0,0-19.2-49.36Z" style="fill:#75bedc"/><path d="M2006.8,114.76h0a31.32,31.32,0,0,1-10.24-60.92,5,5,0,0,1,3.69.18,43.18,43.18,0,0,1,25,39.09,42.71,42.71,0,0,1-3.36,16.69,5,5,0,0,1-3.25,2.85l-3.58,1A31.64,31.64,0,0,1,2006.8,114.76ZM1998,63.93a21.42,21.42,0,0,0,8.85,40.93,21.15,21.15,0,0,0,5.69-.77l1.16-.31a32.83,32.83,0,0,0,1.75-10.67A33.23,33.23,0,0,0,1998,63.93Z" style="fill:#6f60aa"/><path d="M1393.77,4V47.7s16.77,2.76,20.68,6.67c10.12,10.12,23.34,36.55,23.34,36.55h39.88S1490,65.38,1501,54.37c5.45-5.45,20.69-6.67,20.69-6.67V4Z" style="fill:#75bedc"/><path d="M1477.67,95.87h-39.88a5,5,0,0,1-4.42-2.73c-.13-.26-13-25.84-22.42-35.27-1.56-1.5-10-4-18-5.29a4.94,4.94,0,0,1-4.14-4.88V4a4.94,4.94,0,0,1,5-4.94H1521.7a5,5,0,0,1,5,4.94V47.7a5,5,0,0,1-4.55,4.93c-5.59.46-14.73,2.38-17.59,5.24-10.3,10.3-22.27,35-22.38,35.2A5,5,0,0,1,1477.67,95.87ZM1440.82,86h33.79c3.6-7.09,13.53-25.72,22.9-35.1,4.66-4.66,13.61-6.7,19.24-7.56V9h-118V43.58c6.08,1.23,15.6,3.66,19.24,7.29C1426.64,59.56,1437.07,78.8,1440.82,86Z" style="fill:#6f60aa"/><rect x="1393.77" y="17.48" width="28.08" height="16.26" style="fill:#fff"/><path d="M1421.85,38.69h-28.08a5,5,0,0,1-5-4.95V17.48a5,5,0,0,1,5-5h28.08a5,5,0,0,1,4.94,5V33.74A5,5,0,0,1,1421.85,38.69Zm-23.14-9.9h18.19V22.43h-18.19Z" style="fill:#6f60aa"/><rect x="1493.62" y="17.48" width="28.08" height="16.26" style="fill:#fff"/><path d="M1521.7,38.69h-28.08a5,5,0,0,1-4.95-4.95V17.48a5,5,0,0,1,4.95-5h28.08a5,5,0,0,1,5,5V33.74A5,5,0,0,1,1521.7,38.69Zm-23.13-9.9h18.18V22.43h-18.18Z" style="fill:#6f60aa"/><path d="M1794,293.22h0A34.93,34.93,0,0,1,1761.28,246l22.09-58.57a4.95,4.95,0,0,1,6.38-2.88l56.09,21.16a4.95,4.95,0,0,1,2.88,6.38l-22.1,58.57A35.09,35.09,0,0,1,1794,293.22Zm-3.07-97.7-20.35,53.93a25,25,0,1,0,46.83,17.67l20.35-53.94Z" style="fill:#6f60aa"/><path d="M1835.62,147.83A30,30,0,0,0,1797,165.29l-9,23.85,56.09,21.16,9-23.85A30,30,0,0,0,1835.62,147.83Z" style="fill:#e982ac"/><path d="M1844.09,215.25a5.06,5.06,0,0,1-1.75-.32l-56.09-21.16a4.95,4.95,0,0,1-2.88-6.38l9-23.84a34.92,34.92,0,1,1,65.34,24.65l-9,23.85a4.95,4.95,0,0,1-4.63,3.2Zm-49.71-29,46.83,17.66,7.25-19.21A25,25,0,1,0,1801.63,167Z" style="fill:#6f60aa"/><path d="M1792.65,293h0a31.26,31.26,0,1,1,29.24-20.23A31.13,31.13,0,0,1,1792.65,293Zm0-52.62a21.36,21.36,0,0,0-7.55,41.34,21.24,21.24,0,0,0,7.54,1.39,21.36,21.36,0,0,0,7.54-41.35A21.18,21.18,0,0,0,1792.66,240.36Z" style="fill:#6f60aa"/><path d="M2032.82,400h0l-30.27-.11a5,5,0,0,1-3.73-8.18l20-23.21a5,5,0,0,1,8.28,1.24l10,22.86a4.95,4.95,0,0,1-4.3,7.4Zm-19.53-10,11.91,0-4-9.17Z" style="fill:#6f60aa"/><path d="M1791-16.33a17.91,17.91,0,0,0-25.32,0L1761.4-12l-4.28-4.28a17.92,17.92,0,0,0-25.33,0,17.92,17.92,0,0,0,0,25.33l5.27,5.26,19.42,19.43a5.22,5.22,0,0,0,9.83,0l19.42-19.43L1791,9A17.92,17.92,0,0,0,1791-16.33Z" style="fill:#e982ac"/><path d="M1761.4,42.1a5,5,0,0,1-2.15-.49,22.62,22.62,0,0,1-6.26-4.43L1728.3,12.5a22.89,22.89,0,0,1,0-32.33,22.71,22.71,0,0,1,16.16-6.69,22.71,22.71,0,0,1,16.16,6.7l.78.77.78-.78a22.71,22.71,0,0,1,16.16-6.69,22.71,22.71,0,0,1,16.16,6.7,22.87,22.87,0,0,1,0,32.31l-24.69,24.69a22.82,22.82,0,0,1-6.27,4.43A5,5,0,0,1,1761.4,42.1Zm-16.94-58.72a12.88,12.88,0,0,0-9.17,3.79,13,13,0,0,0,0,18.33L1760,30.19a12.76,12.76,0,0,0,1.42,1.21,13.62,13.62,0,0,0,1.41-1.21L1787.5,5.5a13,13,0,0,0,0-18.33,12.86,12.86,0,0,0-9.16-3.79,12.88,12.88,0,0,0-9.17,3.79l-4.28,4.28a4.94,4.94,0,0,1-7,0l-4.28-4.28A12.86,12.86,0,0,0,1744.46-16.62Z" style="fill:#6f60aa"/><polygon points="1462.93 594.81 1472.86 614.94 1495.07 618.16 1479 633.83 1482.8 655.96 1462.93 645.51 1443.06 655.96 1446.86 633.83 1430.78 618.16 1453 614.94 1462.93 594.81" style="fill:#f3d85f"/><path d="M1482.8,660.9a5,5,0,0,1-2.31-.56l-17.56-9.24-17.57,9.24a5,5,0,0,1-7.18-5.22l3.36-19.56-14.21-13.85a5,5,0,0,1,2.74-8.44l19.64-2.86,8.78-17.79a4.94,4.94,0,0,1,8.87,0l8.79,17.79,19.64,2.86a5,5,0,0,1,2.74,8.44l-14.21,13.85,3.35,19.56a4.93,4.93,0,0,1-4.87,5.78Zm-19.87-20.34a4.92,4.92,0,0,1,2.3.57l11,5.78-2.09-12.24a4.92,4.92,0,0,1,1.42-4.38l8.89-8.67-12.29-1.79a4.92,4.92,0,0,1-3.72-2.7l-5.5-11.14-5.5,11.14a4.92,4.92,0,0,1-3.72,2.7l-12.3,1.79,8.9,8.67a5,5,0,0,1,1.42,4.38l-2.1,12.24,11-5.78A4.92,4.92,0,0,1,1462.93,640.56Z" style="fill:#6f60aa"/><path d="M473,1965.91a34.26,34.26,0,1,1-34.25,34.25A34.25,34.25,0,0,1,473,1965.91a57.25,57.25,0,0,0-57.25,57.25V2050a57.25,57.25,0,1,0,114.5,0v-26.86A57.25,57.25,0,0,0,473,1965.91Z" style="fill:#75bedc"/><path d="M473,2112.23a62.28,62.28,0,0,1-62.2-62.21v-26.86a62.2,62.2,0,0,1,124.4,0V2050A62.28,62.28,0,0,1,473,2112.23ZM436.6,1985.65a52.14,52.14,0,0,0-15.89,37.51V2050a52.31,52.31,0,1,0,104.61,0v-26.86a52.18,52.18,0,0,0-15.89-37.51,39.21,39.21,0,1,1-72.83,0ZM473,1970.86a29.31,29.31,0,1,0,29.31,29.3A29.33,29.33,0,0,0,473,1970.86Z" style="fill:#6f60aa"/><path d="M473,1970.86a4.84,4.84,0,0,1-1.13-.13c-5.23-1.23-22.67-5.63-27.69-10.65a16.26,16.26,0,0,1,23-23c5,5,9.42,22.46,10.65,27.69a5,5,0,0,1-4.82,6.08Zm-17.33-28.64a6.29,6.29,0,0,0-4.49,1.87,6.36,6.36,0,0,0,0,9c1.47,1.48,7.87,3.85,14.87,5.88-2-7-4.4-13.4-5.88-14.87A6.29,6.29,0,0,0,455.68,1942.22Z" style="fill:#6f60aa"/><path d="M473,1970.86a5,5,0,0,1-4.82-6.08c1.23-5.23,5.63-22.67,10.65-27.69a16.26,16.26,0,0,1,23,23c-5,5-22.46,9.42-27.69,10.65A4.78,4.78,0,0,1,473,1970.86Zm17.33-28.64a6.29,6.29,0,0,0-4.5,1.87c-1.48,1.48-3.85,7.87-5.88,14.87,7-2,13.4-4.4,14.88-5.88a6.37,6.37,0,0,0-4.5-10.86Z" style="fill:#6f60aa"/><path d="M250.61,1792.73v-11.39a7.31,7.31,0,1,0-14.61,0v11.39a17,17,0,0,0-15.31,16.88v41a17,17,0,0,0,17,17H249a17,17,0,0,0,17-17v-41A17,17,0,0,0,250.61,1792.73Z" style="fill:#f3d85f"/><path d="M249,1872.52H237.65a21.94,21.94,0,0,1-21.91-21.91v-41a21.81,21.81,0,0,1,15.32-20.91v-7.36a12.25,12.25,0,0,1,24.5,0v7.36a21.81,21.81,0,0,1,15.31,20.91v41A21.93,21.93,0,0,1,249,1872.52ZM243.31,1779a2.36,2.36,0,0,0-2.36,2.36v11.39a4.93,4.93,0,0,1-4.47,4.92,12,12,0,0,0-10.84,12v41a12,12,0,0,0,12,12H249a12,12,0,0,0,12-12v-41a12,12,0,0,0-10.84-12,4.94,4.94,0,0,1-4.48-4.92v-11.39A2.36,2.36,0,0,0,243.31,1779Z" style="fill:#6f60aa"/><path d="M222.11,1834.67h42.41a17,17,0,0,1,17,17V1962.7a17,17,0,0,1-17,17H222.1a17,17,0,0,1-17-17V1851.64A17,17,0,0,1,222.11,1834.67Z" style="fill:#fff"/><path d="M264.51,1984.61H222.1a21.94,21.94,0,0,1-21.91-21.91V1851.64a21.93,21.93,0,0,1,21.91-21.91h42.41a21.93,21.93,0,0,1,21.91,21.91V1962.7A21.94,21.94,0,0,1,264.51,1984.61Zm-42.41-145a12,12,0,0,0-12,12V1962.7a12,12,0,0,0,12,12h42.41a12,12,0,0,0,12-12V1851.64a12,12,0,0,0-12-12Z" style="fill:#6f60aa"/><path d="M276.36,1824.47a10.2,10.2,0,0,1-10.2,10.2h-45.7a10.2,10.2,0,0,1-10.2-10.2h0a10.2,10.2,0,0,1,10.2-10.2h45.7a10.2,10.2,0,0,1,10.2,10.2Z" style="fill:#e982ac"/><path d="M266.16,1839.62h-45.7a15.15,15.15,0,0,1,0-30.3h45.7a15.15,15.15,0,0,1,0,30.3Zm-45.7-20.41a5.26,5.26,0,0,0,0,10.52h45.7a5.26,5.26,0,0,0,0-10.52Z" style="fill:#6f60aa"/><path d="M281.47,1872.52H249a5,5,0,0,1,0-9.9h32.51a5,5,0,0,1,0,9.9Z" style="fill:#6f60aa"/><path d="M281.47,1892.07H249a4.95,4.95,0,0,1,0-9.89h32.51a4.95,4.95,0,1,1,0,9.89Z" style="fill:#6f60aa"/><path d="M281.47,1911.63H249a5,5,0,0,1,0-9.9h32.51a5,5,0,0,1,0,9.9Z" style="fill:#6f60aa"/><path d="M281.47,1931.18H249a4.95,4.95,0,0,1,0-9.89h32.51a4.95,4.95,0,1,1,0,9.89Z" style="fill:#6f60aa"/><path d="M281.47,1950.74H249a4.95,4.95,0,0,1,0-9.89h32.51a4.95,4.95,0,1,1,0,9.89Z" style="fill:#6f60aa"/><polygon points="292.97 1535.51 262.7 1535.4 262.7 1535.4 282.73 1512.19 292.97 1535.51" style="fill:#e982ac"/><path d="M293,1540.45h0l-30.28-.1a4.95,4.95,0,0,1-3.72-8.18L279,1509a5,5,0,0,1,8.28,1.25l10,22.86a4.94,4.94,0,0,1-4.3,7.39Zm-19.53-10,11.91,0-4-9.17Z" style="fill:#6f60aa"/><path d="M330.17,1526.32A24.51,24.51,0,1,0,300,1537.83a34.39,34.39,0,0,0,25.67,57.29H381.3a34.4,34.4,0,0,0,34.4-34.4v-34.4Z" style="fill:#f3d85f"/><path d="M381.3,1600.07H325.69a39.35,39.35,0,0,1-33.17-60.51,29.44,29.44,0,1,1,44.71-18.19H415.7a5,5,0,0,1,4.94,5v34.4A39.39,39.39,0,0,1,381.3,1600.07Zm-72.79-104.76a19.54,19.54,0,0,0-6.77,37.88,4.94,4.94,0,0,1,2,7.93,29.44,29.44,0,0,0,22,49.05H381.3a29.48,29.48,0,0,0,29.45-29.45v-29.45H330.17a4.95,4.95,0,0,1-4.38-7.27,19.24,19.24,0,0,0,2.27-9.13A19.57,19.57,0,0,0,308.51,1495.31Z" style="fill:#6f60aa"/><path d="M382.82,1560.72A14.28,14.28,0,0,1,368.53,1575H331.17a14.28,14.28,0,0,1-14.29-14.28h0a14.28,14.28,0,0,1,14.29-14.28h51.65v14.28Z" style="fill:#f3d85f"/><path d="M368.53,1580H331.17a19.23,19.23,0,0,1,0-38.46h51.65a4.94,4.94,0,0,1,4.94,5v14.28A19.24,19.24,0,0,1,368.53,1580Zm-37.36-28.56a9.34,9.34,0,1,0,0,18.67h37.36a9.35,9.35,0,0,0,9.34-9.34v-9.33Z" style="fill:#6f60aa"/><path d="M310.11,1512.19a5.29,5.29,0,1,0-5.28,5.28A5.28,5.28,0,0,0,310.11,1512.19Z" style="fill:#6f60aa"/><path d="M576.18,1764a17.91,17.91,0,0,0-25.32,0l-4.28,4.28L542.3,1764A17.9,17.9,0,0,0,517,1789.31l5.27,5.27L541.67,1814a17.86,17.86,0,0,0,4.91,3.47,17.71,17.71,0,0,0,4.91-3.47l19.43-19.42,5.26-5.27A17.89,17.89,0,0,0,576.18,1764Z" style="fill:#e982ac"/><path d="M546.58,1822.42a5,5,0,0,1-2.14-.49,22.82,22.82,0,0,1-6.27-4.43l-24.69-24.69a22.85,22.85,0,0,1,32.32-32.32l.78.78.78-.78a22.85,22.85,0,0,1,32.32,32.32L555,1817.5a22.53,22.53,0,0,1-6.27,4.43A5,5,0,0,1,546.58,1822.42Zm-16.94-58.72a13,13,0,0,0-9.16,22.12l24.69,24.69a13.62,13.62,0,0,0,1.41,1.21,12.76,12.76,0,0,0,1.42-1.21l24.69-24.69a13,13,0,0,0-18.33-18.33l-4.28,4.28a5,5,0,0,1-7,0l-4.27-4.28A12.88,12.88,0,0,0,529.64,1763.7Z" style="fill:#6f60aa"/><path d="M1149.53,1940.35V1929a7.31,7.31,0,1,0-14.61,0v11.39a17,17,0,0,0-15.31,16.88v41a17,17,0,0,0,17,17h11.31a17,17,0,0,0,17-17v-41A17,17,0,0,0,1149.53,1940.35Z" style="fill:#f3d85f"/><path d="M1147.88,2020.14h-11.31a21.94,21.94,0,0,1-21.91-21.91v-41a21.82,21.82,0,0,1,15.31-20.91V1929a12.26,12.26,0,0,1,24.51,0v7.36a21.82,21.82,0,0,1,15.31,20.91v41A21.94,21.94,0,0,1,1147.88,2020.14Zm-5.65-93.54a2.36,2.36,0,0,0-2.36,2.36v11.39a4.94,4.94,0,0,1-4.47,4.92,12,12,0,0,0-10.84,12v41a12,12,0,0,0,12,12h11.31a12,12,0,0,0,12-12v-41a12,12,0,0,0-10.85-12,4.94,4.94,0,0,1-4.47-4.92V1929A2.36,2.36,0,0,0,1142.23,1926.6Z" style="fill:#6f60aa"/><rect x="1104.06" y="1982.29" width="76.33" height="144.99" rx="16.96" style="fill:#fff"/><path d="M1163.43,2132.23H1121a21.94,21.94,0,0,1-21.91-21.91V1999.26a21.94,21.94,0,0,1,21.91-21.91h42.41a21.94,21.94,0,0,1,21.91,21.91v111.06A21.94,21.94,0,0,1,1163.43,2132.23Zm-42.41-145a12,12,0,0,0-12,12v111.06a12,12,0,0,0,12,12h42.41a12,12,0,0,0,12-12V1999.26a12,12,0,0,0-12-12Z" style="fill:#6f60aa"/><path d="M1175.28,1972.09a10.2,10.2,0,0,1-10.2,10.2h-45.71a10.19,10.19,0,0,1-10.19-10.2h0a10.2,10.2,0,0,1,10.19-10.2h45.71a10.2,10.2,0,0,1,10.2,10.2Z" style="fill:#e982ac"/><path d="M1165.08,1987.24h-45.71a15.15,15.15,0,0,1,0-30.3h45.71a15.15,15.15,0,1,1,0,30.3Zm-45.71-20.4a5.26,5.26,0,0,0,0,10.51h45.71a5.26,5.26,0,0,0,0-10.51Z" style="fill:#6f60aa"/><path d="M851.68,667v42.52l-20.52,5.63c-.56.15-1.11.35-1.65.54A38.11,38.11,0,0,1,848.71,765l38.23-10.49c14-3.86,18.46-17.27,18.46-32.44V667Z" style="fill:#fff"/><path d="M848.71,770a5,5,0,0,1-4.56-6.87,33.17,33.17,0,0,0-16.71-43,4.94,4.94,0,0,1,.45-9.17l.3-.11c.55-.19,1.1-.38,1.66-.53l16.88-4.64V667a5,5,0,0,1,4.95-5H905.4a5,5,0,0,1,5,5v55.13c0,25.74-12,34.44-22.1,37.21L850,769.78A4.92,4.92,0,0,1,848.71,770Zm-7.31-52.54A43,43,0,0,1,856,757.89l29.68-8.15c10-2.73,14.82-11.78,14.82-27.66V671.9H856.63v37.57a5,5,0,0,1-3.64,4.77Z" style="fill:#6f60aa"/><path d="M905.4,693.1H851.68a4.95,4.95,0,1,1,0-9.89H905.4a4.95,4.95,0,1,1,0,9.89Z" style="fill:#6f60aa"/><path d="M829.51,715.64A26.37,26.37,0,0,0,845.13,766l3.58-1a38.11,38.11,0,0,0-19.2-49.37Z" style="fill:#75bedc"/><path d="M838.13,771.89h0A31.32,31.32,0,0,1,827.89,711a5,5,0,0,1,3.69.18,43.05,43.05,0,0,1,21.69,55.78,5,5,0,0,1-3.25,2.85l-3.58,1A31.24,31.24,0,0,1,838.13,771.89Zm-8.85-50.83a21.42,21.42,0,0,0,14.54,40.16l1.16-.32a32.82,32.82,0,0,0,1.75-10.66A33.23,33.23,0,0,0,829.28,721.06Z" style="fill:#6f60aa"/><path d="M1477.67,2095.87h-39.88a5,5,0,0,1-4.42-2.73c-.13-.26-13-25.84-22.42-35.27-1.56-1.5-10-4-18-5.29a4.94,4.94,0,0,1-4.14-4.88V2004a4.94,4.94,0,0,1,5-4.94H1521.7a5,5,0,0,1,5,4.94v43.66a5,5,0,0,1-4.55,4.93c-5.59.46-14.73,2.38-17.59,5.24-10.3,10.3-22.27,35-22.38,35.2A5,5,0,0,1,1477.67,2095.87Zm-36.85-9.9h33.79c3.6-7.09,13.53-25.72,22.9-35.1,4.66-4.66,13.61-6.7,19.24-7.56V2009h-118v34.59c6.08,1.23,15.6,3.65,19.24,7.29C1426.64,2059.56,1437.07,2078.8,1440.82,2086Z" style="fill:#6f60aa"/><path d="M1791,1983.67a17.91,17.91,0,0,0-25.32,0l-4.28,4.28-4.28-4.28a17.91,17.91,0,0,0-25.33,25.33l5.27,5.26,19.42,19.43a5.22,5.22,0,0,0,9.83,0l19.42-19.43L1791,2009A17.92,17.92,0,0,0,1791,1983.67Z" style="fill:#e982ac"/><path d="M1761.4,2042.1a5,5,0,0,1-2.15-.49,22.62,22.62,0,0,1-6.26-4.43l-24.69-24.68a22.85,22.85,0,1,1,32.32-32.32l.78.77.78-.77a22.85,22.85,0,1,1,32.32,32.31l-24.69,24.69a22.82,22.82,0,0,1-6.27,4.43A5,5,0,0,1,1761.4,2042.1Zm-16.94-58.72a13,13,0,0,0-9.17,22.12l24.69,24.69a12.76,12.76,0,0,0,1.42,1.21,13.62,13.62,0,0,0,1.41-1.21l24.69-24.69a13,13,0,0,0-18.33-18.33l-4.28,4.28a4.94,4.94,0,0,1-7,0l-4.28-4.28A12.86,12.86,0,0,0,1744.46,1983.38Z" style="fill:#6f60aa"/><path d="M586.94,687.77V676.38a7.31,7.31,0,1,0-14.61,0v11.39A17,17,0,0,0,557,704.65v41a17,17,0,0,0,17,17h11.31a17,17,0,0,0,17-17v-41A17,17,0,0,0,586.94,687.77Z" style="fill:#f3d85f"/><path d="M585.29,767.56H574a21.94,21.94,0,0,1-21.91-21.91v-41a21.83,21.83,0,0,1,15.31-20.91v-7.36a12.26,12.26,0,0,1,24.51,0v7.36a21.83,21.83,0,0,1,15.31,20.91v41A21.94,21.94,0,0,1,585.29,767.56ZM579.63,674a2.36,2.36,0,0,0-2.35,2.36v11.39a5,5,0,0,1-4.48,4.93A12,12,0,0,0,562,704.65v41a12,12,0,0,0,12,12h11.31a12,12,0,0,0,12-12v-41a12,12,0,0,0-10.84-11.95,5,5,0,0,1-4.47-4.93V676.38A2.36,2.36,0,0,0,579.63,674Z" style="fill:#6f60aa"/><rect x="541.47" y="729.71" width="76.33" height="144.99" rx="16.96" style="fill:#fff"/><path d="M600.84,879.65H558.43a21.94,21.94,0,0,1-21.91-21.91V746.68a21.94,21.94,0,0,1,21.91-21.91h42.41a21.94,21.94,0,0,1,21.91,21.91V857.74A21.94,21.94,0,0,1,600.84,879.65Zm-42.41-145a12,12,0,0,0-12,12V857.74a12,12,0,0,0,12,12h42.41a12,12,0,0,0,12-12V746.68a12,12,0,0,0-12-12Z" style="fill:#6f60aa"/><path d="M612.69,719.51a10.2,10.2,0,0,1-10.21,10.2h-45.7a10.2,10.2,0,0,1-10.2-10.2h0a10.2,10.2,0,0,1,10.2-10.2h45.7a10.21,10.21,0,0,1,10.21,10.2Z" style="fill:#e982ac"/><path d="M602.48,734.66h-45.7a15.15,15.15,0,0,1,0-30.3h45.7a15.15,15.15,0,0,1,0,30.3Zm-45.7-20.4a5.26,5.26,0,0,0,0,10.51h45.7a5.26,5.26,0,1,0,0-10.51Z" style="fill:#6f60aa"/><path d="M617.8,767.56H585.29a5,5,0,0,1,0-9.9H617.8a5,5,0,0,1,0,9.9Z" style="fill:#6f60aa"/><path d="M617.8,787.12H585.29a5,5,0,1,1,0-9.9H617.8a5,5,0,1,1,0,9.9Z" style="fill:#6f60aa"/><path d="M617.8,806.67H585.29a4.95,4.95,0,1,1,0-9.89H617.8a4.95,4.95,0,1,1,0,9.89Z" style="fill:#6f60aa"/><path d="M617.8,826.22H585.29a4.95,4.95,0,1,1,0-9.89H617.8a4.95,4.95,0,1,1,0,9.89Z" style="fill:#6f60aa"/><path d="M617.8,845.78H585.29a4.95,4.95,0,1,1,0-9.89H617.8a4.95,4.95,0,1,1,0,9.89Z" style="fill:#6f60aa"/><path d="M102.64,1667.91a30.16,30.16,0,0,1-30.16,30.16h-36a30.16,30.16,0,0,1-30.16-30.16h0a30.16,30.16,0,0,1,30.16-30.16h36a30.16,30.16,0,0,1,30.16,30.16Z" style="fill:#f3d85f"/><path d="M72.48,1703h-36a35.11,35.11,0,0,1,0-70.22h36a35.11,35.11,0,0,1,0,70.22Zm-36-60.32a25.21,25.21,0,0,0,0,50.42h36a25.21,25.21,0,1,0,0-50.42Z" style="fill:#6f60aa"/><path d="M54.46,1738.06a27.72,27.72,0,0,1-27.69-27.69v-24.6a27.7,27.7,0,0,1,55.39,0v24.6A27.72,27.72,0,0,1,54.46,1738.06Zm0-70.09a17.82,17.82,0,0,0-17.79,17.8v24.6a17.8,17.8,0,0,0,35.59,0v-24.6A17.82,17.82,0,0,0,54.46,1668Z" style="fill:#6f60aa"/><circle cx="54.46" cy="1667.91" r="14.97" style="fill:#fff"/><path d="M54.46,1687.83a19.92,19.92,0,1,1,19.92-19.92A19.94,19.94,0,0,1,54.46,1687.83Zm0-29.94a10,10,0,1,0,10,10A10,10,0,0,0,54.46,1657.89Z" style="fill:#6f60aa"/><path d="M1499.27,1791.77V1731.4c-41.66,0-75.42,25.39-75.42,56.71s33.76,56.7,75.42,56.7c40,0,72.73-23.43,75.25-53Z" style="fill:#fff"/><path d="M1499.27,1849.76c-44.32,0-80.37-27.66-80.37-61.65s36-61.65,80.37-61.66a5,5,0,0,1,4.94,5v55.42h70.31a5,5,0,0,1,4.93,5.37C1576.71,1824.47,1541.49,1849.76,1499.27,1849.76Zm-5-113.28c-36.56,1.87-65.53,24.31-65.53,51.63,0,28.54,31.62,51.75,70.48,51.75,34.64,0,63.85-18.55,69.48-43.14h-69.48a5,5,0,0,1-5-5Z" style="fill:#6f60aa"/><path d="M1574.52,1796.68a5,5,0,0,1-5-5,32.71,32.71,0,0,1,32.67-32.68,5,5,0,1,1,0,9.9,22.81,22.81,0,0,0-22.78,22.78A5,5,0,0,1,1574.52,1796.68Z" style="fill:#6f60aa"/><circle cx="1444.24" cy="1858.31" r="13.5" style="fill:#f3d85f"/><path d="M1444.24,1876.75a18.45,18.45,0,1,1,18.44-18.44A18.47,18.47,0,0,1,1444.24,1876.75Zm0-27a8.55,8.55,0,1,0,8.54,8.55A8.55,8.55,0,0,0,1444.24,1849.76Z" style="fill:#6f60aa"/><path d="M1567.62,1858.31a13.5,13.5,0,1,0-13.5,13.49A13.5,13.5,0,0,0,1567.62,1858.31Z" style="fill:#f3d85f"/><path d="M1554.12,1876.75a18.45,18.45,0,1,1,18.45-18.44A18.46,18.46,0,0,1,1554.12,1876.75Zm0-27a8.55,8.55,0,1,0,8.55,8.55A8.55,8.55,0,0,0,1554.12,1849.76Z" style="fill:#6f60aa"/><path d="M1492.6,1330a34.26,34.26,0,1,1-34.25,34.26A34.25,34.25,0,0,1,1492.6,1330a57.26,57.26,0,0,0-57.25,57.26v26.86a57.25,57.25,0,1,0,114.5,0v-26.86A57.26,57.26,0,0,0,1492.6,1330Z" style="fill:#75bedc"/><path d="M1492.6,1476.27a62.27,62.27,0,0,1-62.2-62.2v-26.86a62.2,62.2,0,0,1,124.4,0v26.86A62.27,62.27,0,0,1,1492.6,1476.27Zm-36.42-126.57a52.17,52.17,0,0,0-15.89,37.51v26.86a52.31,52.31,0,0,0,104.61,0v-26.86A52.16,52.16,0,0,0,1529,1349.7a39.2,39.2,0,1,1-72.84,0Zm36.42-14.8a29.31,29.31,0,1,0,29.3,29.31A29.35,29.35,0,0,0,1492.6,1334.9Z" style="fill:#6f60aa"/><path d="M1492.6,1334.9a4.78,4.78,0,0,1-1.13-.13c-5.23-1.23-22.67-5.63-27.69-10.65a16.26,16.26,0,0,1,23-23c5,5,9.42,22.47,10.65,27.69a5,5,0,0,1-4.82,6.08Zm-17.33-28.63a6.28,6.28,0,0,0-4.49,1.86,6.36,6.36,0,0,0,0,9c1.47,1.47,7.87,3.84,14.87,5.88-2-7-4.4-13.4-5.88-14.88A6.32,6.32,0,0,0,1475.27,1306.27Z" style="fill:#6f60aa"/><path d="M1492.6,1334.9a5,5,0,0,1-4.82-6.08c1.23-5.22,5.63-22.66,10.65-27.69a16.26,16.26,0,1,1,23,23c-5,5-22.46,9.42-27.69,10.65A4.84,4.84,0,0,1,1492.6,1334.9Zm17.33-28.63a6.31,6.31,0,0,0-4.5,1.86c-1.48,1.48-3.85,7.88-5.89,14.88,7-2,13.41-4.41,14.88-5.89a6.36,6.36,0,0,0-4.49-10.85Z" style="fill:#6f60aa"/><path d="M1270.2,1156.77v-11.39a7.31,7.31,0,0,0-14.61,0v11.39a17,17,0,0,0-15.31,16.88v41a17,17,0,0,0,17,17h11.31a17,17,0,0,0,17-17v-41A17,17,0,0,0,1270.2,1156.77Z" style="fill:#f3d85f"/><path d="M1268.55,1236.56h-11.31a21.94,21.94,0,0,1-21.91-21.91v-41a21.81,21.81,0,0,1,15.31-20.9v-7.37a12.26,12.26,0,0,1,24.51,0v7.37a21.81,21.81,0,0,1,15.31,20.9v41A21.94,21.94,0,0,1,1268.55,1236.56ZM1262.9,1143a2.36,2.36,0,0,0-2.36,2.36v11.39a5,5,0,0,1-4.47,4.93,12,12,0,0,0-10.84,12v41a12,12,0,0,0,12,12h11.31a12,12,0,0,0,12-12v-41a12,12,0,0,0-10.85-12,5,5,0,0,1-4.47-4.93v-11.39A2.36,2.36,0,0,0,1262.9,1143Z" style="fill:#6f60aa"/><path d="M1241.69,1198.71h42.41a17,17,0,0,1,17,17v111.06a17,17,0,0,1-17,17h-42.41a17,17,0,0,1-17-17V1215.68A17,17,0,0,1,1241.69,1198.71Z" style="fill:#fff"/><path d="M1284.1,1348.65h-42.41a21.94,21.94,0,0,1-21.91-21.91V1215.68a21.94,21.94,0,0,1,21.91-21.91h42.41a21.94,21.94,0,0,1,21.91,21.91v111.06A21.94,21.94,0,0,1,1284.1,1348.65Zm-42.41-145a12,12,0,0,0-12,12v111.06a12,12,0,0,0,12,12h42.41a12,12,0,0,0,12-12V1215.68a12,12,0,0,0-12-12Z" style="fill:#6f60aa"/><path d="M1296,1188.51a10.2,10.2,0,0,1-10.2,10.2H1240a10.19,10.19,0,0,1-10.19-10.2h0a10.2,10.2,0,0,1,10.19-10.2h45.71a10.2,10.2,0,0,1,10.2,10.2Z" style="fill:#e982ac"/><path d="M1285.75,1203.66H1240a15.15,15.15,0,0,1,0-30.3h45.71a15.15,15.15,0,0,1,0,30.3Zm-45.71-20.4a5.26,5.26,0,0,0,0,10.51h45.71a5.26,5.26,0,0,0,0-10.51Z" style="fill:#6f60aa"/><path d="M1301.06,1236.56h-32.51a5,5,0,0,1,0-9.9h32.51a5,5,0,1,1,0,9.9Z" style="fill:#6f60aa"/><path d="M1301.06,1256.12h-32.51a4.95,4.95,0,0,1,0-9.9h32.51a4.95,4.95,0,1,1,0,9.9Z" style="fill:#6f60aa"/><path d="M1301.06,1275.67h-32.51a4.95,4.95,0,1,1,0-9.89h32.51a4.95,4.95,0,1,1,0,9.89Z" style="fill:#6f60aa"/><path d="M1301.06,1295.23h-32.51a5,5,0,0,1,0-9.9h32.51a5,5,0,0,1,0,9.9Z" style="fill:#6f60aa"/><path d="M1301.06,1314.79h-32.51a5,5,0,0,1,0-9.9h32.51a5,5,0,1,1,0,9.9Z" style="fill:#6f60aa"/><path d="M1932.61,1397.65h-17.43a37,37,0,0,1-74,0h-17.4v0l0,0-52.8,32.38,25.67,39.45,27.16-15.71v95.53s19.36-3.66,29.63,5.67c9,8.19,7.83,31.1,7.83,31.1h33.93s-2.59-22.91,7.83-31.1c10.22-8,29.63-5.67,29.63-5.67v-95.5l27.13,15.68,25.67-39.45Z" style="fill:#e982ac"/><path d="M1895.18,1591h-34a4.94,4.94,0,0,1-4.94-5.2c.4-8-.94-22.39-6.22-27.18-4.63-4.22-12.08-5.1-17.51-5.1a47.83,47.83,0,0,0-7.88.62,5,5,0,0,1-5.86-4.86v-87l-19.74,11.41a5,5,0,0,1-6.62-1.59l-25.67-39.44a5,5,0,0,1,1.56-6.92l52.8-32.38a4.93,4.93,0,0,1,2.66-.73h17.36a5,5,0,0,1,4.95,5,32.06,32.06,0,1,0,64.12,0,5,5,0,0,1,5-5h17.43a4.92,4.92,0,0,1,2.59.73l52.8,32.38a5,5,0,0,1,1.56,6.92l-25.67,39.44a5,5,0,0,1-6.62,1.59l-19.71-11.39v86.93a5,5,0,0,1-5.54,4.91,57.78,57.78,0,0,0-5.9-.28c-8.9,0-16,1.75-20.08,4.93-6.54,5.14-6.57,20.49-6,26.17a4.42,4.42,0,0,1,.11,1A5,5,0,0,1,1895.18,1591Zm-29-9.9h23.69c-.17-8.15.92-22.89,10-30,7.42-5.83,18.33-7,26.19-7l1.54,0V1453.8a5,5,0,0,1,7.43-4.29l23.07,13.33,20.33-31.25-47.28-29h-11.38a42,42,0,0,1-83.32,0h-11.38l-47.28,29,20.34,31.25,23.09-13.35a5,5,0,0,1,7.43,4.28v90c1.16-.08,2.46-.13,3.84-.13,7.18,0,17.19,1.33,24.17,7.67C1864.56,1558.43,1866,1573.14,1866.21,1581.12Z" style="fill:#6f60aa"/><path d="M1000.29,1372.57v42.51l-20.52,5.63c-.57.16-1.11.36-1.66.55a38.07,38.07,0,0,1,19.2,49.36l38.23-10.49c14.06-3.86,18.46-17.27,18.46-32.43v-55.13Z" style="fill:#fff"/><path d="M997.31,1475.57a4.94,4.94,0,0,1-4.56-6.87,32.8,32.8,0,0,0,2.59-12.84,33.25,33.25,0,0,0-19.3-30.11,4.95,4.95,0,0,1,.45-9.17l.3-.1c.55-.19,1.1-.38,1.67-.54l16.88-4.63v-38.74a4.94,4.94,0,0,1,4.95-5H1054a4.94,4.94,0,0,1,5,5v55.13c0,25.73-12,34.43-22.1,37.2l-38.23,10.5A4.86,4.86,0,0,1,997.31,1475.57ZM990,1423a43.16,43.16,0,0,1,14.56,40.48l29.67-8.15c10-2.74,14.82-11.79,14.82-27.66v-50.19h-43.82v37.57a5,5,0,0,1-3.64,4.77Z" style="fill:#6f60aa"/><path d="M1054,1398.72h-53.71a5,5,0,1,1,0-9.9H1054a5,5,0,0,1,0,9.9Z" style="fill:#6f60aa"/><path d="M978.11,1421.26a26.37,26.37,0,0,0,15.63,50.35l3.57-1a38.07,38.07,0,0,0-19.2-49.36Z" style="fill:#75bedc"/><path d="M986.74,1477.5h0a31.32,31.32,0,0,1-10.25-60.92,5,5,0,0,1,3.69.19,43.05,43.05,0,0,1,21.69,55.78,4.93,4.93,0,0,1-3.25,2.85l-3.58,1A31.56,31.56,0,0,1,986.74,1477.5Zm-8.86-50.83a21.43,21.43,0,0,0,14.55,40.17l1.16-.32a33.18,33.18,0,0,0-15.71-39.85Z" style="fill:#6f60aa"/><path d="M1795.16,1781v43.66s16.77,2.76,20.68,6.67c10.12,10.12,23.35,36.55,23.35,36.55h39.87s12.33-25.53,23.34-36.55c5.45-5.45,20.69-6.67,20.69-6.67V1781Z" style="fill:#75bedc"/><path d="M1879.06,1872.83h-39.87a5,5,0,0,1-4.43-2.73c-.13-.26-13-25.84-22.41-35.27-1.57-1.5-10-4-18-5.29a4.94,4.94,0,0,1-4.14-4.88V1781a4.94,4.94,0,0,1,5-4.94h127.93a5,5,0,0,1,5,4.94v43.66a5,5,0,0,1-4.55,4.93c-5.59.46-14.73,2.38-17.59,5.24-10.3,10.3-22.27,35-22.38,35.21A5,5,0,0,1,1879.06,1872.83Zm-36.85-9.9H1876c3.6-7.09,13.53-25.72,22.9-35.1,4.66-4.66,13.61-6.7,19.24-7.56V1786h-118v34.59c6.08,1.23,15.61,3.66,19.24,7.29C1828,1836.52,1838.46,1855.76,1842.21,1862.93Z" style="fill:#6f60aa"/><rect x="1795.16" y="1794.44" width="28.08" height="16.26" style="fill:#fff"/><path d="M1823.24,1815.65h-28.08a5,5,0,0,1-5-5v-16.26a5,5,0,0,1,5-5h28.08a5,5,0,0,1,5,5v16.26A5,5,0,0,1,1823.24,1815.65Zm-23.14-9.9h18.19v-6.36H1800.1Z" style="fill:#6f60aa"/><rect x="1895.01" y="1794.44" width="28.08" height="16.26" style="fill:#fff"/><path d="M1923.09,1815.65H1895a5,5,0,0,1-5-5v-16.26a5,5,0,0,1,5-5h28.08a5,5,0,0,1,5,5v16.26A5,5,0,0,1,1923.09,1815.65Zm-23.13-9.9h18.18v-6.36H1900Z" style="fill:#6f60aa"/><path d="M788.11,1915.76h0a34.93,34.93,0,0,1-32.67-47.26l22.1-58.57a4.94,4.94,0,0,1,6.37-2.88L840,1828.21a4.95,4.95,0,0,1,2.88,6.38l-22.1,58.57A35.09,35.09,0,0,1,788.11,1915.76Zm-3.06-97.71L764.7,1872a25,25,0,0,0,23.41,33.87,25.16,25.16,0,0,0,23.42-16.2l20.35-53.94Z" style="fill:#6f60aa"/><path d="M829.79,1770.37a30,30,0,0,0-38.63,17.46l-9,23.85,56.09,21.16,9-23.85A30,30,0,0,0,829.79,1770.37Z" style="fill:#e982ac"/><path d="M838.25,1837.79a5,5,0,0,1-1.74-.32l-56.09-21.16a5,5,0,0,1-2.77-2.59,4.93,4.93,0,0,1-.11-3.79l9-23.85a35.11,35.11,0,0,1,32.68-22.6,35,35,0,0,1,32.67,47.26l-9,23.85a4.94,4.94,0,0,1-2.59,2.76A5,5,0,0,1,838.25,1837.79Zm-49.71-29,46.83,17.66,7.25-19.21a25,25,0,1,0-46.83-17.67Z" style="fill:#6f60aa"/><path d="M786.81,1915.52h0a31.28,31.28,0,0,1-29.24-42.29,31.25,31.25,0,1,1,29.24,42.29Zm0-52.62a21.36,21.36,0,0,0-7.54,41.34,21.18,21.18,0,0,0,7.53,1.38,21.36,21.36,0,0,0,7.55-41.34A21.23,21.23,0,0,0,786.82,1862.9Z" style="fill:#6f60aa"/><polygon points="1052.38 1759.09 1022.11 1758.98 1022.11 1758.98 1042.13 1735.77 1052.38 1759.09" style="fill:#e982ac"/><path d="M1052.41,1764h-.05l-30.27-.11a5,5,0,0,1-3.73-8.18l20-23.21a4.94,4.94,0,0,1,8.27,1.24l10,22.86a4.95,4.95,0,0,1-4.3,7.4Zm-19.53-10,11.91,0-4-9.18Z" style="fill:#6f60aa"/><path d="M1089.57,1749.91a24.51,24.51,0,1,0-30.14,11.5,34.39,34.39,0,0,0,25.67,57.29h55.6a34.4,34.4,0,0,0,34.4-34.4v-34.39Z" style="fill:#f3d85f"/><path d="M1140.7,1823.65h-55.6a39.33,39.33,0,0,1-33.17-60.5,29.44,29.44,0,1,1,45.44-24.7,29.08,29.08,0,0,1-.74,6.51h78.47a5,5,0,0,1,5,5v34.39A39.39,39.39,0,0,1,1140.7,1823.65Zm-72.78-104.76a19.54,19.54,0,0,0-6.78,37.88,5,5,0,0,1,2,7.94,29.45,29.45,0,0,0,22,49h55.6a29.48,29.48,0,0,0,29.45-29.46v-29.45h-80.58a4.94,4.94,0,0,1-4.37-7.26,19.31,19.31,0,0,0,2.27-9.14A19.58,19.58,0,0,0,1067.92,1718.89Z" style="fill:#6f60aa"/><path d="M1142.22,1784.3a14.28,14.28,0,0,1-14.28,14.29h-37.37a14.29,14.29,0,0,1-14.28-14.29h0a14.29,14.29,0,0,1,14.28-14.28h51.65v14.28Z" style="fill:#f3d85f"/><path d="M1127.94,1803.54h-37.37a19.24,19.24,0,0,1,0-38.47h51.65a5,5,0,0,1,5,5v14.28A19.26,19.26,0,0,1,1127.94,1803.54ZM1090.57,1775a9.34,9.34,0,0,0,0,18.67h37.37a9.35,9.35,0,0,0,9.34-9.34V1775Z" style="fill:#6f60aa"/><path d="M1069.52,1735.77a5.29,5.29,0,1,0-5.29,5.28A5.28,5.28,0,0,0,1069.52,1735.77Z" style="fill:#6f60aa"/><path d="M1300.77,1586.37a17.92,17.92,0,0,0-25.33,0l-4.27,4.28-4.29-4.28a17.9,17.9,0,0,0-25.32,25.32l5.27,5.27,19.42,19.42a18,18,0,0,0,4.92,3.47,18.07,18.07,0,0,0,4.91-3.47L1295.5,1617l5.27-5.27A17.91,17.91,0,0,0,1300.77,1586.37Z" style="fill:#e982ac"/><path d="M1271.17,1644.79a4.9,4.9,0,0,1-2.15-.49,22.58,22.58,0,0,1-6.27-4.42l-24.69-24.69a22.85,22.85,0,0,1,32.32-32.32l.79.78.77-.78a22.85,22.85,0,0,1,32.32,32.32l-24.68,24.69a22.58,22.58,0,0,1-6.27,4.42A4.89,4.89,0,0,1,1271.17,1644.79Zm-17-58.72a13,13,0,0,0-9.16,22.12l24.69,24.69a11.85,11.85,0,0,0,1.42,1.22,12.59,12.59,0,0,0,1.41-1.22l24.69-24.69a13,13,0,1,0-18.33-18.32l-4.28,4.27a4.93,4.93,0,0,1-7,0l-4.28-4.27A12.87,12.87,0,0,0,1254.22,1586.07Z" style="fill:#6f60aa"/><polygon points="1669.37 1579.91 1679.3 1600.04 1701.51 1603.27 1685.44 1618.94 1689.24 1641.06 1669.37 1630.61 1649.5 1641.06 1653.3 1618.94 1637.22 1603.27 1659.44 1600.04 1669.37 1579.91" style="fill:#f3d85f"/><path d="M1689.24,1646a5,5,0,0,1-2.31-.57l-17.56-9.24-17.57,9.24a5,5,0,0,1-7.18-5.22l3.36-19.56-14.21-13.85a5,5,0,0,1,2.74-8.44l19.64-2.85,8.78-17.8a4.94,4.94,0,0,1,8.87,0l8.79,17.8,19.63,2.85a4.95,4.95,0,0,1,2.75,8.44l-14.21,13.85,3.35,19.56a4.95,4.95,0,0,1-4.87,5.79Zm-19.87-20.35a5,5,0,0,1,2.3.57l11,5.78-2.1-12.24a5,5,0,0,1,1.43-4.38l8.89-8.67-12.29-1.78a5,5,0,0,1-3.72-2.71l-5.5-11.14-5.5,11.14a5,5,0,0,1-3.72,2.71l-12.3,1.78,8.9,8.67a5,5,0,0,1,1.42,4.38l-2.1,12.24,11-5.78A5.12,5.12,0,0,1,1669.37,1625.66Z" style="fill:#6f60aa"/><path d="M231.28,1213.49v-60.37c-41.66,0-75.42,25.39-75.42,56.71s33.76,56.7,75.42,56.7c40,0,72.73-23.43,75.25-53Z" style="fill:#fff"/><path d="M231.28,1271.48c-44.32,0-80.37-27.66-80.37-61.65s36.05-61.66,80.37-61.66a4.93,4.93,0,0,1,4.94,4.95v55.42h70.31a5,5,0,0,1,4.93,5.37C308.72,1246.19,273.5,1271.48,231.28,1271.48Zm-4.95-113.29c-36.56,1.88-65.53,24.32-65.53,51.64,0,28.53,31.62,51.75,70.48,51.75,34.64,0,63.85-18.55,69.48-43.14H231.28a5,5,0,0,1-4.95-5Z" style="fill:#6f60aa"/><path d="M306.53,1218.39a4.94,4.94,0,0,1-4.95-5,32.71,32.71,0,0,1,32.67-32.67,5,5,0,0,1,0,9.9,22.8,22.8,0,0,0-22.78,22.77A4.94,4.94,0,0,1,306.53,1218.39Z" style="fill:#6f60aa"/><path d="M189.75,1280a13.5,13.5,0,1,0-13.5,13.49A13.5,13.5,0,0,0,189.75,1280Z" style="fill:#f3d85f"/><path d="M176.25,1298.47A18.45,18.45,0,1,1,194.69,1280,18.47,18.47,0,0,1,176.25,1298.47Zm0-27a8.55,8.55,0,1,0,8.55,8.55A8.56,8.56,0,0,0,176.25,1271.48Z" style="fill:#6f60aa"/><path d="M299.63,1280a13.5,13.5,0,1,0-13.5,13.49A13.49,13.49,0,0,0,299.63,1280Z" style="fill:#f3d85f"/><path d="M286.13,1298.47A18.45,18.45,0,1,1,304.58,1280,18.46,18.46,0,0,1,286.13,1298.47Zm0-27a8.55,8.55,0,1,0,8.55,8.55A8.55,8.55,0,0,0,286.13,1271.48Z" style="fill:#6f60aa"/><path d="M224.61,751.67a34.26,34.26,0,1,1-34.25,34.25,34.25,34.25,0,0,1,34.25-34.25,57.25,57.25,0,0,0-57.25,57.25v26.86a57.26,57.26,0,1,0,114.51,0V808.92A57.26,57.26,0,0,0,224.61,751.67Z" style="fill:#75bedc"/><path d="M224.61,898a62.27,62.27,0,0,1-62.2-62.21V808.92a62.2,62.2,0,0,1,124.4,0v26.86A62.27,62.27,0,0,1,224.61,898ZM188.2,771.41a52.15,52.15,0,0,0-15.9,37.51v26.86a52.31,52.31,0,0,0,104.62,0V808.92A52.18,52.18,0,0,0,261,771.41a39.21,39.21,0,1,1-72.83,0Zm36.41-14.79a29.31,29.31,0,1,0,29.31,29.3A29.33,29.33,0,0,0,224.61,756.62Z" style="fill:#6f60aa"/><path d="M224.61,756.62a4.84,4.84,0,0,1-1.13-.13c-5.23-1.23-22.67-5.63-27.69-10.65a16.26,16.26,0,0,1,23-23c5,5,9.42,22.47,10.65,27.69a5,5,0,0,1-4.82,6.08ZM207.28,728a6.36,6.36,0,0,0-4.49,10.85c1.47,1.48,7.87,3.85,14.87,5.89-2-7-4.4-13.41-5.88-14.88A6.32,6.32,0,0,0,207.28,728Z" style="fill:#6f60aa"/><path d="M224.61,756.62a5,5,0,0,1-4.82-6.08c1.23-5.22,5.63-22.67,10.65-27.69a16.26,16.26,0,0,1,23,23c-5,5-22.46,9.42-27.69,10.65A4.78,4.78,0,0,1,224.61,756.62ZM241.94,728a6.32,6.32,0,0,0-4.5,1.86c-1.48,1.48-3.85,7.88-5.88,14.88,7-2,13.4-4.41,14.88-5.89a6.36,6.36,0,0,0-4.5-10.85Z" style="fill:#6f60aa"/><path d="M2.21,578.49V567.1a7.3,7.3,0,0,0-7.3-7.31,7.31,7.31,0,0,0-7.31,7.31v11.39a17,17,0,0,0-15.31,16.88v41a17,17,0,0,0,17,17H.56a17,17,0,0,0,17-17v-41A17,17,0,0,0,2.21,578.49Z" style="fill:#f3d85f"/><path d="M.56,658.28H-10.75a21.94,21.94,0,0,1-21.91-21.91v-41a21.82,21.82,0,0,1,15.32-20.91V567.1A12.26,12.26,0,0,1-5.09,554.85,12.26,12.26,0,0,1,7.16,567.1v7.36a21.82,21.82,0,0,1,15.31,20.91v41A21.93,21.93,0,0,1,.56,658.28Zm-5.65-93.54a2.36,2.36,0,0,0-2.36,2.36v11.39a4.93,4.93,0,0,1-4.47,4.92,12,12,0,0,0-10.84,12v41a12,12,0,0,0,12,12H.56a12,12,0,0,0,12-12v-41a12,12,0,0,0-10.84-12,4.94,4.94,0,0,1-4.48-4.92V567.1A2.36,2.36,0,0,0-5.09,564.74Z" style="fill:#6f60aa"/><rect x="-43.26" y="620.43" width="76.33" height="144.99" rx="16.96" style="fill:#fff"/><path d="M16.11,770.37H-26.3a21.94,21.94,0,0,1-21.91-21.91V637.4A21.94,21.94,0,0,1-26.3,615.49H16.11A21.94,21.94,0,0,1,38,637.4V748.46A21.94,21.94,0,0,1,16.11,770.37Zm-42.41-145a12,12,0,0,0-12,12V748.46a12,12,0,0,0,12,12H16.11a12,12,0,0,0,12-12V637.4a12,12,0,0,0-12-12Z" style="fill:#6f60aa"/><path d="M28,610.23a10.2,10.2,0,0,1-10.2,10.2h-45.7a10.19,10.19,0,0,1-10.2-10.2h0A10.2,10.2,0,0,1-27.94,600h45.7A10.2,10.2,0,0,1,28,610.23Z" style="fill:#e982ac"/><path d="M17.76,625.38h-45.7a15.16,15.16,0,0,1-15.15-15.15,15.17,15.17,0,0,1,15.15-15.15h45.7a15.15,15.15,0,0,1,0,30.3ZM-27.94,605a5.26,5.26,0,0,0-5.26,5.25,5.27,5.27,0,0,0,5.26,5.26h45.7a5.26,5.26,0,0,0,0-10.51Z" style="fill:#6f60aa"/><path d="M33.07,658.28H.56a5,5,0,0,1,0-9.9H33.07a4.95,4.95,0,1,1,0,9.9Z" style="fill:#6f60aa"/><path d="M33.07,677.84H.56a5,5,0,0,1-4.94-5,4.94,4.94,0,0,1,4.94-4.95H33.07a5,5,0,1,1,0,9.9Z" style="fill:#6f60aa"/><path d="M33.07,697.39H.56a5,5,0,0,1-4.94-4.95A4.94,4.94,0,0,1,.56,687.5H33.07a4.95,4.95,0,1,1,0,9.89Z" style="fill:#6f60aa"/><path d="M33.07,716.94H.56a4.95,4.95,0,0,1,0-9.89H33.07a4.95,4.95,0,1,1,0,9.89Z" style="fill:#6f60aa"/><path d="M33.07,736.5H.56a4.95,4.95,0,0,1,0-9.89H33.07a4.95,4.95,0,1,1,0,9.89Z" style="fill:#6f60aa"/><path d="M741.32,1404.09H723.88a37,37,0,0,1-74,0H632.46v0l0,0-52.8,32.38,25.67,39.44,27.16-15.7v95.52s19.36-3.65,29.63,5.68c9,8.18,7.83,31.1,7.83,31.1h33.93s-2.59-22.92,7.83-31.1c10.22-8,29.64-5.68,29.64-5.68v-95.5l27.13,15.68,25.66-39.44Z" style="fill:#e982ac"/><path d="M703.88,1597.46h-34a4.94,4.94,0,0,1-4.93-5.2c.39-8-1-22.39-6.22-27.19-4.64-4.21-12.08-5.09-17.51-5.09a48.19,48.19,0,0,0-7.89.62,4.94,4.94,0,0,1-5.85-4.87v-86.94l-19.74,11.41a5,5,0,0,1-6.63-1.59l-25.66-39.45a4.89,4.89,0,0,1-.68-3.78,4.94,4.94,0,0,1,2.24-3.13l52.8-32.38a4.81,4.81,0,0,1,2.65-.73h17.37a5,5,0,0,1,5,4.95,32.06,32.06,0,0,0,64.11,0,5,5,0,0,1,5-4.95h17.44a4.91,4.91,0,0,1,2.58.73l52.8,32.38a4.94,4.94,0,0,1,1.56,6.91l-25.67,39.45a5,5,0,0,1-6.62,1.59l-19.71-11.4v86.93a4.93,4.93,0,0,1-5.54,4.91,57.78,57.78,0,0,0-5.9-.28c-8.89,0-16,1.76-20.08,4.94-6.54,5.14-6.57,20.48-6,26.16a5.19,5.19,0,0,1,.11,1A5,5,0,0,1,703.88,1597.46Zm-29-9.9H698.6c-.16-8.15.92-22.89,10-30,7.42-5.83,18.34-7.06,26.19-7.06l1.55,0v-90.25a4.95,4.95,0,0,1,7.42-4.28l23.07,13.33L787.19,1438l-47.27-29H728.54a42,42,0,0,1-83.33,0H633.83l-47.28,29,20.34,31.25,23.1-13.35a4.95,4.95,0,0,1,7.42,4.28v90c1.17-.07,2.46-.12,3.85-.12,7.17,0,17.18,1.33,24.16,7.67C673.26,1564.87,674.73,1579.58,674.92,1587.56Z" style="fill:#6f60aa"/><path d="M877.68,1045.25a30.16,30.16,0,0,1-30.16,30.16h-36a30.16,30.16,0,0,1-30.16-30.16h0a30.15,30.15,0,0,1,30.16-30.15h36a30.15,30.15,0,0,1,30.16,30.15Z" style="fill:#f3d85f"/><path d="M847.52,1080.36h-36a35.11,35.11,0,1,1,0-70.21h36a35.11,35.11,0,1,1,0,70.21Zm-36-60.32a25.22,25.22,0,0,0,0,50.43h36a25.22,25.22,0,0,0,0-50.43Z" style="fill:#6f60aa"/><path d="M829.51,1115.4a27.72,27.72,0,0,1-27.7-27.69v-24.6a27.7,27.7,0,0,1,55.39,0v24.6A27.72,27.72,0,0,1,829.51,1115.4Zm0-70.08a17.81,17.81,0,0,0-17.8,17.79v24.6a17.8,17.8,0,1,0,35.59,0v-24.6A17.81,17.81,0,0,0,829.51,1045.32Z" style="fill:#6f60aa"/><circle cx="829.51" cy="1045.25" r="14.97" transform="translate(-13.05 10.49) rotate(-0.72)" style="fill:#fff"/><path d="M829.51,1065.17a19.92,19.92,0,1,1,19.91-19.92A19.94,19.94,0,0,1,829.51,1065.17Zm0-29.94a10,10,0,1,0,10,10A10,10,0,0,0,829.51,1035.23Z" style="fill:#6f60aa"/><path d="M558.78,1148.3V1192s16.77,2.76,20.69,6.67c10.11,10.12,23.34,36.55,23.34,36.55h39.87S655,1209.64,666,1198.63c5.44-5.45,20.68-6.67,20.68-6.67V1148.3Z" style="fill:#75bedc"/><path d="M642.68,1240.13H602.81a5,5,0,0,1-4.43-2.73c-.12-.26-13-25.84-22.41-35.27-1.56-1.5-10-4-18-5.29a5,5,0,0,1-4.14-4.88V1148.3a5,5,0,0,1,4.95-5H686.71a5,5,0,0,1,4.95,5V1192a5,5,0,0,1-4.55,4.93c-5.58.45-14.73,2.38-17.59,5.24-10.3,10.3-22.26,34.95-22.38,35.2A5,5,0,0,1,642.68,1240.13Zm-36.85-9.9h33.79c3.6-7.09,13.53-25.73,22.91-35.1,4.66-4.66,13.6-6.71,19.24-7.56v-34.32h-118v34.59c6.07,1.23,15.6,3.65,19.23,7.29C591.65,1203.82,602.09,1223.06,605.83,1230.23Z" style="fill:#6f60aa"/><rect x="558.78" y="1161.74" width="28.08" height="16.26" style="fill:#fff"/><path d="M586.86,1182.94H558.78a4.94,4.94,0,0,1-4.95-4.94v-16.26a5,5,0,0,1,4.95-5h28.08a5,5,0,0,1,4.95,5V1178A5,5,0,0,1,586.86,1182.94Zm-23.13-9.89h18.18v-6.36H563.73Z" style="fill:#6f60aa"/><rect x="658.63" y="1161.74" width="28.08" height="16.26" style="fill:#fff"/><path d="M686.71,1182.94H658.63a5,5,0,0,1-5-4.94v-16.26a5,5,0,0,1,5-5h28.08a5,5,0,0,1,4.95,5V1178A4.94,4.94,0,0,1,686.71,1182.94Zm-23.13-9.89h18.19v-6.36H663.58Z" style="fill:#6f60aa"/><path d="M32.78,1008.09a17.9,17.9,0,0,0-25.33,0l-4.27,4.27-4.28-4.27a17.9,17.9,0,0,0-25.33,0,17.91,17.91,0,0,0,0,25.32l5.27,5.26,19.42,19.43a17.72,17.72,0,0,0,4.92,3.46,17.82,17.82,0,0,0,4.91-3.46l19.42-19.43,5.27-5.26A17.91,17.91,0,0,0,32.78,1008.09Z" style="fill:#e982ac"/><path d="M3.18,1066.51A4.9,4.9,0,0,1,1,1066a22.59,22.59,0,0,1-6.26-4.42l-24.69-24.69a22.88,22.88,0,0,1,0-32.32,22.67,22.67,0,0,1,16.16-6.7,22.71,22.71,0,0,1,16.16,6.7l.78.78.78-.78a22.85,22.85,0,1,1,32.32,32.32L11.59,1061.6A22.79,22.79,0,0,1,5.32,1066,4.89,4.89,0,0,1,3.18,1066.51Zm-16.94-58.72a12.91,12.91,0,0,0-9.17,3.79,13,13,0,0,0,0,18.33L1.76,1054.6a12.84,12.84,0,0,0,1.42,1.22,13.71,13.71,0,0,0,1.41-1.22l24.69-24.69A13,13,0,0,0,11,1011.58l-4.28,4.28a4.93,4.93,0,0,1-7,0l-4.28-4.28A12.9,12.9,0,0,0-13.76,1007.79Z" style="fill:#6f60aa"/><polygon points="401.38 1001.63 411.31 1021.76 433.52 1024.98 417.45 1040.65 421.25 1062.78 401.38 1052.33 381.51 1062.78 385.31 1040.65 369.23 1024.98 391.45 1021.76 401.38 1001.63" style="fill:#f3d85f"/><path d="M421.25,1067.73a4.92,4.92,0,0,1-2.3-.57l-17.57-9.24-17.57,9.24a5,5,0,0,1-7.18-5.22l3.36-19.56-14.21-13.85a5,5,0,0,1,2.74-8.44l19.64-2.86,8.78-17.79a4.94,4.94,0,0,1,8.87,0l8.79,17.79,19.64,2.86a5,5,0,0,1,2.74,8.44l-14.21,13.85,3.36,19.56a5,5,0,0,1-4.88,5.79Zm-19.87-20.35a4.92,4.92,0,0,1,2.3.57l11,5.78-2.1-12.24a4.93,4.93,0,0,1,1.42-4.38l8.89-8.67-12.29-1.78a5,5,0,0,1-3.72-2.71l-5.5-11.14-5.5,11.14a5,5,0,0,1-3.72,2.71l-12.29,1.78,8.89,8.67a4.93,4.93,0,0,1,1.42,4.38l-2.1,12.24,11-5.78A4.92,4.92,0,0,1,401.38,1047.38Z" style="fill:#6f60aa"/><path d="M1133.39,911.08V850.71c-41.65,0-75.42,25.39-75.42,56.71s33.77,56.7,75.42,56.7c40,0,72.74-23.43,75.25-53Z" style="fill:#fff"/><path d="M1133.39,969.07c-44.31,0-80.36-27.66-80.36-61.65s36-61.66,80.36-61.66a5,5,0,0,1,4.95,5v55.42h70.3a4.94,4.94,0,0,1,4.93,5.37C1210.83,943.78,1175.61,969.07,1133.39,969.07Zm-4.94-113.29c-36.57,1.88-65.53,24.32-65.53,51.64,0,28.53,31.61,51.75,70.47,51.75,34.65,0,63.86-18.55,69.48-43.14h-69.48a5,5,0,0,1-4.94-4.95Z" style="fill:#6f60aa"/><path d="M1208.64,916a4.94,4.94,0,0,1-4.94-5,32.71,32.71,0,0,1,32.67-32.67,5,5,0,0,1,0,9.9A22.8,22.8,0,0,0,1213.59,911,5,5,0,0,1,1208.64,916Z" style="fill:#6f60aa"/><path d="M1091.86,977.62a13.5,13.5,0,1,0-13.5,13.49A13.49,13.49,0,0,0,1091.86,977.62Z" style="fill:#f3d85f"/><path d="M1078.36,996.06a18.45,18.45,0,1,1,18.45-18.44A18.46,18.46,0,0,1,1078.36,996.06Zm0-27a8.55,8.55,0,1,0,8.55,8.55A8.55,8.55,0,0,0,1078.36,969.07Z" style="fill:#6f60aa"/><path d="M1201.75,977.62a13.5,13.5,0,1,0-13.5,13.49A13.5,13.5,0,0,0,1201.75,977.62Z" style="fill:#f3d85f"/><path d="M1188.25,996.06a18.45,18.45,0,1,1,18.45-18.44A18.46,18.46,0,0,1,1188.25,996.06Zm0-27a8.55,8.55,0,1,0,8.55,8.55A8.56,8.56,0,0,0,1188.25,969.07Z" style="fill:#6f60aa"/><path d="M2002.21,578.49V567.1a7.31,7.31,0,1,0-14.61,0v11.39a17,17,0,0,0-15.31,16.88v41a17,17,0,0,0,17,17h11.31a17,17,0,0,0,17-17v-41A17,17,0,0,0,2002.21,578.49Z" style="fill:#f3d85f"/><path d="M2000.56,658.28h-11.31a21.94,21.94,0,0,1-21.91-21.91v-41a21.82,21.82,0,0,1,15.31-20.91V567.1a12.26,12.26,0,0,1,24.51,0v7.36a21.82,21.82,0,0,1,15.31,20.91v41A21.93,21.93,0,0,1,2000.56,658.28Zm-5.65-93.54a2.36,2.36,0,0,0-2.36,2.36v11.39a4.93,4.93,0,0,1-4.47,4.92,12,12,0,0,0-10.84,12v41a12,12,0,0,0,12,12h11.31a12,12,0,0,0,12-12v-41a12,12,0,0,0-10.84-12,4.94,4.94,0,0,1-4.48-4.92V567.1A2.36,2.36,0,0,0,1994.91,564.74Z" style="fill:#6f60aa"/><rect x="1956.74" y="620.43" width="76.33" height="144.99" rx="16.96" style="fill:#fff"/><path d="M2016.11,770.37H1973.7a21.94,21.94,0,0,1-21.91-21.91V637.4a21.94,21.94,0,0,1,21.91-21.91h42.41A21.94,21.94,0,0,1,2038,637.4V748.46A21.94,21.94,0,0,1,2016.11,770.37Zm-42.41-145a12,12,0,0,0-12,12V748.46a12,12,0,0,0,12,12h42.41a12,12,0,0,0,12-12V637.4a12,12,0,0,0-12-12Z" style="fill:#6f60aa"/><path d="M2028,610.23a10.2,10.2,0,0,1-10.2,10.2h-45.7a10.19,10.19,0,0,1-10.2-10.2h0a10.2,10.2,0,0,1,10.2-10.2h45.7a10.2,10.2,0,0,1,10.2,10.2Z" style="fill:#e982ac"/><path d="M2017.76,625.38h-45.7a15.15,15.15,0,1,1,0-30.3h45.7a15.15,15.15,0,1,1,0,30.3Zm-45.7-20.4a5.26,5.26,0,1,0,0,10.51h45.7a5.26,5.26,0,0,0,0-10.51Z" style="fill:#6f60aa"/><path d="M2033.07,658.28h-32.51a5,5,0,0,1,0-9.9h32.51a4.95,4.95,0,1,1,0,9.9Z" style="fill:#6f60aa"/><path d="M2033.07,677.84h-32.51a5,5,0,0,1,0-9.9h32.51a5,5,0,1,1,0,9.9Z" style="fill:#6f60aa"/><path d="M2033.07,697.39h-32.51a4.95,4.95,0,0,1,0-9.89h32.51a4.95,4.95,0,1,1,0,9.89Z" style="fill:#6f60aa"/><path d="M2033.07,716.94h-32.51a4.95,4.95,0,0,1,0-9.89h32.51a4.95,4.95,0,1,1,0,9.89Z" style="fill:#6f60aa"/><path d="M2033.07,736.5h-32.51a4.95,4.95,0,0,1,0-9.89h32.51a4.95,4.95,0,1,1,0,9.89Z" style="fill:#6f60aa"/><path d="M1772,795.59V838.1l-20.52,5.63c-.56.16-1.11.36-1.65.55a38.1,38.1,0,0,1,19.2,49.36l38.23-10.49c14-3.86,18.46-17.27,18.46-32.43V795.59Z" style="fill:#fff"/><path d="M1769,898.59a4.94,4.94,0,0,1-4.56-6.87,33.17,33.17,0,0,0-16.71-43,4.94,4.94,0,0,1,.45-9.17l.3-.1c.55-.2,1.1-.38,1.66-.54l16.88-4.63V795.59a5,5,0,0,1,5-5h53.72a5,5,0,0,1,4.95,5v55.13c0,25.73-12,34.43-22.1,37.2l-38.23,10.49A4.92,4.92,0,0,1,1769,898.59Zm-7.31-52.54a43,43,0,0,1,14.55,40.47l29.68-8.14c10-2.74,14.82-11.79,14.82-27.66V800.53H1776.9V838.1a5,5,0,0,1-3.64,4.77Z" style="fill:#6f60aa"/><path d="M1825.67,821.74H1772a5,5,0,0,1,0-9.9h53.72a5,5,0,0,1,0,9.9Z" style="fill:#6f60aa"/><path d="M1749.78,844.28a26.37,26.37,0,0,0,15.62,50.35l3.58-1a38.1,38.1,0,0,0-19.2-49.36Z" style="fill:#75bedc"/><path d="M1758.4,900.52h0a31.32,31.32,0,0,1-10.24-60.92,5,5,0,0,1,3.69.18,43.06,43.06,0,0,1,21.69,55.79,5,5,0,0,1-3.25,2.84l-3.58,1A31.64,31.64,0,0,1,1758.4,900.52Zm-8.86-50.83a21.43,21.43,0,0,0,8.86,40.93,21.15,21.15,0,0,0,5.69-.77l1.16-.31a32.83,32.83,0,0,0,1.75-10.67A33.22,33.22,0,0,0,1749.54,849.69Z" style="fill:#6f60aa"/><path d="M1486.23,1048.46h0a34.93,34.93,0,0,1-32.66-47.26l22.09-58.56a4.94,4.94,0,0,1,6.38-2.89l56.09,21.16a4.95,4.95,0,0,1,2.88,6.38l-22.1,58.57A35.09,35.09,0,0,1,1486.23,1048.46Zm-3.07-97.7-20.35,53.94a25.07,25.07,0,0,0,23.42,33.87,25.15,25.15,0,0,0,23.41-16.21L1530,968.42Z" style="fill:#6f60aa"/><path d="M1527.9,903.07a30,30,0,0,0-38.62,17.46l-9,23.85,56.09,21.16,9-23.85A30,30,0,0,0,1527.9,903.07Z" style="fill:#e982ac"/><path d="M1536.37,970.49a4.75,4.75,0,0,1-1.74-.32L1478.54,949a4.93,4.93,0,0,1-2.77-2.59,5,5,0,0,1-.12-3.79l9-23.84a35.11,35.11,0,0,1,32.68-22.61A35,35,0,0,1,1550,943.44l-9,23.85a4.91,4.91,0,0,1-2.59,2.76A5,5,0,0,1,1536.37,970.49Zm-49.71-29,46.83,17.67,7.25-19.22a25,25,0,1,0-46.83-17.67Z" style="fill:#6f60aa"/><path d="M1484.93,1048.22h0a31.25,31.25,0,1,1,29.24-20.22A31.13,31.13,0,0,1,1484.93,1048.22Zm0-52.62a21.36,21.36,0,0,0-7.55,41.34,21.24,21.24,0,0,0,7.54,1.39,21.37,21.37,0,0,0,0-42.73Z" style="fill:#6f60aa"/><polygon points="1784.39 1180.81 1754.12 1180.7 1754.12 1180.7 1774.15 1157.49 1784.39 1180.81" style="fill:#e982ac"/><path d="M1784.42,1185.76h-.05l-30.27-.11a5,5,0,0,1-3.73-8.18l20-23.21a5,5,0,0,1,8.28,1.24l10,22.86a4.95,4.95,0,0,1-4.3,7.4Zm-19.53-10,11.91,0-4-9.17Z" style="fill:#6f60aa"/><path d="M1821.58,1171.62a24.25,24.25,0,0,0,2.85-11.45,24.51,24.51,0,1,0-33,23,34.39,34.39,0,0,0,25.67,57.29h55.61a34.4,34.4,0,0,0,34.4-34.4v-34.4Z" style="fill:#f3d85f"/><path d="M1872.72,1245.37h-55.61a39.33,39.33,0,0,1-33.17-60.5,29.44,29.44,0,1,1,44.71-18.2h78.47a5,5,0,0,1,4.94,4.95V1206A39.39,39.39,0,0,1,1872.72,1245.37Zm-72.79-104.76a19.54,19.54,0,0,0-6.77,37.88,5,5,0,0,1,2,7.94,29.45,29.45,0,0,0,22,49h55.61a29.49,29.49,0,0,0,29.45-29.46v-29.45h-80.59a4.95,4.95,0,0,1-4.37-7.26,19.31,19.31,0,0,0,2.27-9.14A19.58,19.58,0,0,0,1799.93,1140.61Z" style="fill:#6f60aa"/><path d="M1874.24,1206A14.28,14.28,0,0,1,1860,1220.3h-37.36A14.28,14.28,0,0,1,1808.3,1206h0a14.29,14.29,0,0,1,14.29-14.28h51.65V1206Z" style="fill:#f3d85f"/><path d="M1860,1225.25h-37.36a19.23,19.23,0,1,1,0-38.46h51.65a5,5,0,0,1,4.94,5V1206A19.24,19.24,0,0,1,1860,1225.25Zm-37.36-28.56a9.34,9.34,0,1,0,0,18.67H1860a9.35,9.35,0,0,0,9.34-9.34v-9.33Z" style="fill:#6f60aa"/><path d="M1801.53,1157.49a5.29,5.29,0,1,0-5.29,5.28A5.28,5.28,0,0,0,1801.53,1157.49Z" style="fill:#6f60aa"/><path d="M2032.78,1008.09a17.89,17.89,0,0,0-25.32,0l-4.28,4.27-4.28-4.27a17.91,17.91,0,0,0-25.33,25.32l5.27,5.26,19.42,19.43a5.22,5.22,0,0,0,9.83,0l19.42-19.43,5.27-5.26A17.91,17.91,0,0,0,2032.78,1008.09Z" style="fill:#e982ac"/><path d="M2003.18,1066.51a4.9,4.9,0,0,1-2.15-.49,22.59,22.59,0,0,1-6.26-4.42l-24.69-24.69a22.85,22.85,0,1,1,32.32-32.32l.78.78.78-.78a22.85,22.85,0,0,1,32.32,32.32l-24.69,24.69a22.79,22.79,0,0,1-6.27,4.42A4.89,4.89,0,0,1,2003.18,1066.51Zm-16.94-58.72a13,13,0,0,0-9.17,22.12l24.69,24.69a12.84,12.84,0,0,0,1.42,1.22,13.71,13.71,0,0,0,1.41-1.22l24.69-24.69a13,13,0,0,0-18.33-18.33l-4.28,4.28a4.93,4.93,0,0,1-7,0l-4.28-4.28A12.9,12.9,0,0,0,1986.24,1007.79Z" style="fill:#6f60aa"/></g></svg>